<?xml version="1.0" encoding="UTF-8"?>
<svg id="Layer_2" data-name="Layer 2" xmlns="http://www.w3.org/2000/svg" viewBox="0 0 132.25 132.25">
  <defs>
    <style>
      .cls-1 {
        fill: #b2d1ab;
      }

      .cls-2 {
        opacity: .5;
      }

      .cls-3 {
        fill: #fefefe;
      }

      .cls-4 {
        fill: #406a5f;
      }
    </style>
  </defs>
  <g id="Layer_1-2" data-name="Layer 1">
    <g id="jhCjOO.tif">
      <g class="cls-2">
        <path class="cls-3" d="M.12.12h132v132H.12V.12ZM15.99,65.98c-.17.1-.35.24-.52.39l-2.18,2.32c-.66.83-1.39,1.65-2.19,2.31l-2.31.36c-.92.38-1.69.93-1.97,1.93-.04,1.36.94,2.54,2.21,2.74l.35.4.09.81.41.35.13.03.5.74c.08.49.22,1.03.46,1.43l2.33,1.83c.33.49.78.84,1.25,1.18l.84.97c.68,1.03,1.4,2,2.26,2.89l1.11,1.74c.18.94.72,1.66,1.4,2.3.32.97.73,1.89,1.28,2.73-.01.68.04,1.33.19,2.01.26.79.76,1.43,1.45,1.89.39.32.96.4,1.31-.03l.8-.46.7-.67c.4.09.78.26,1.11.57,1.33.29,2.59.73,3.62,1.66l2.03.8,2.79,1.21.66.09.42-.48.45-.12.11-.58,1.3-1.84.62-.11.88,1.34c.75.48,1.39,1.06,1.97,1.77.22.21.48.39.76.52l2.67,3.43c.55,1.32,1.19,2.55,2.07,3.67l1.63,1.74c.43.24.7.62.61,1.2.27.65.75,1.19,1.31,1.67l1.79.77c.88,1.19,1.61,2.39,2.15,3.78.28.46.67.74,1.15,1.07l1.95.46c1.05.56,2.14.98,3.22,1.3l3,1.43c1.32-.39,2.58-.86,3.62-1.63l.25-.32v-.12c.49-.28.58-1.02.13-1.52-.15-.51.03-1.02.35-1.47l.77-1.04.52-.88.71-1.29.03-.78c.44-.49.6-1.14.05-1.73l1.69-3c.12-.42.48-.72.86-.72l.82,1.07c.71-.17,1.18-.49,1.66-1.01l1.14-1.55c.49-.29.73-.82.68-1.38l.36-.54c.35-.15.63-.53.71-.93l.19-.52c.47-.35.86-.83.65-1.55.08-.43.16-.74.35-1.19.69.21,1.08.48,1.58.9l4.45,3.7,1.38.79c.37.37.78.55,1.29.62l.33-1.7.2-1.51c-.53-.77-.17-1.7.53-2.07l.93.58c.51.21.93.49,1.36.84.71.04,1.46.2,1.94.76.61.57,1.23.99,2.01,1.39.46-.05.79-.24,1.11-.56l1.67-1.94,2.2-2.95c.21-.29.56-.55.82-.61.16.35.34.52.62.56.71.09,1.29.21,1.88.41l1.19.35c.49,0,1,.18,1.26.78l-1.42-.17.32,1.54-.13,1.41c.67.57,1.78.53,2.18-.2.41-.06.89-.22,1.16-.51l1.2-.39-.08-.82-.12-.65c.48.05.74-.21.78-.67.72-.24,1.39-.59,1.59-1.35.04-.54.27-1.05.8-1.26l1.09-.97.43-.33.25-.3.34-.35.95-.95c-.27-.85.02-1.53.51-2.17-.29-.85-.55-1.74-.58-2.51l.83-.56,1.33-.84-.46-.98c-.29-.13-.32-.61-.07-.73.64-.31,1.14-.64,1.65-1.08l1.23-.55.32.38.76-.26,1.55-.29c.34-.38.61-.54,1.09-.66l.51-.49-.3-.7-.68-.4-.25-.2.4-1.37c-.84-.49-1.14-1.15-.83-2.04l-1-1.13c-.29-.48-.67-.88-1.15-1.16-.52-.03-.9.15-.92.71l-.93.38-.78-.53-1.21-1.5-1.22-1.38.33-.75-.89-1.48-1.37-2.88-3.11-4.07-2.57-2.48-1.68-1.42c-.38-.33-.78-.59-1.22-.81-.47-.78-1.19-1.44-1.96-1.88l-.18.82-.78-.08.59-1.01-.91-.3-.27-.09.1-.19.08-.12-2.1-1.71-.31.41-.09-.62-.69.12-2.09,2.14c-.12.26-.28.46-.48.68l-.46.26-.42-.16-.69-.76-2.78-1.95c.1-.29.3-.46.57-.52.71-.14,1.25-.39,1.85-.74.37-.14.7-.31,1.02-.51l.94-.73c.4-.42.74-.83.9-1.3l.34-.16.93-1.29c-.01-.82-.25-1.43-.67-2.07l-1.03-1.25c.11-.3.42-.74.68-1.02l1.06-1.18c.11-.27.18-.52.24-.84l-.65-.47c-.09-.39.01-.87.41-1.26l-.21-.39c-.12-.54-.41-1.1-1-1.36-.41-.45-.6-1.02-.69-1.62-.27-.35-.52-.71-.67-1.12l-1.2-2.14c.12-.48-.15-.81-.64-.94l-.26-.97c-.45-.08-.66-.28-.74-.7l-3.7-2.36-1.78-1.18-2.42-1.75-.39.02-.13-.4-1.25-.65c-.32-.35-.64-.64-1.07-.86l-1.01-1.05-2.95-2.18-5.91-4.26-2.2-1.79-1.62-1.23c-.58-.1-.98-.39-1.28-.97-.4-.14-1.03-.21-1.43-.14-.31.3-.45.41-.77.58l-.79.96-.45.21c-.21.31-.37.49-.62.7-.59.72-1.15,1.4-1.83,2.05-.42.52-.76,1.13-1.07,1.74l-.97.83-.76.9-.14.44-.37.07v.37s-.2.17-.2.17l-2.89,3.88c-.88.91-1.66,1.84-2.42,2.83l-1.33,1.53c-.08.56-.63.98-1.11.89-.18-.42-.43-.7-.76-.96l-1.06-1.01-.63-.78c-.5-.18-.87-.45-1.11-.96-.32-.19-.61-.31-.99-.39l-.78.62-1.33,1.76c-.43.34-.83.72-1.15,1.16l-1.39,1.71c-.49.32-.72.83-.77,1.36l-.5.18-.04.31c-.5.16-.71.54-.72.99l-.64.29-4.94,5.87-3.38,4.22-1.46,1.64-1.56,2.03-1.44,1.39c-.17.41-.41.8-.76,1.04l-1.64,1.97-1.24,1.34-1.94,2.05c-.25.52-.59.93-1,1.32-.71.63-1.25,1.3-1.78,2.1-.23.31-.32.71-.19,1.04.75.43.76,1.1.51,1.86l-1,1.19-.26.52ZM101.77,57.2l.07-.17-.07.17Z"/>
        <polygon class="cls-4" points="66.67 80.17 66.86 80.25 66.72 81.05 66.17 80.66 66.6 80.58 66.67 80.17"/>
        <path class="cls-4" d="M96.89,51.56c-.16.46-.51.87-.9,1.3l-.94.73c-.31.21-.65.38-1.02.51-.59.35-1.14.61-1.85.74-.26.06-.46.24-.57.52l2.78,1.95.69.76c-.28.4-.6.79-.97,1.14l-.8.89c-.18.33-.4.6-.69.84l-.75.84c-.44.05-.8.35-.85.77l-.38.7.55-.08c-.11.3-.57.32-.95.12l-.05.33.46.15-.15.57,3.06,2.43c.17.46.45.74.87.91l1.12.57c.16.23.31.41.53.62l-.02.48.73-.02c.26.11.42.03.7-.16l-.13.49.94.18c-.11-.75-.71-1.01-1.38-1.22-.12-.39.03-1.05.36-1.26l.57-.36-.09-.68-.8-.06-.34.11-.05-.24.46-.09-.91-1.21c-.5.06-.93-.25-1.02-.76l-1.1-.48-.05-1.12.76-.84c.23-.29.41-.66.52-1.06l1.35-1.29c.29-.16.5-.33.68-.65.57-.4,1.43-.61,2.11-.61l1.13,1.15,3.99,3.35c.62.56,1.23,1.15,1.97,1.53l.72.64-.65.21c-.79-.91-1.65-1.51-2.68-2.04-.21-.34-.48-.68-.78-.97l-1.86-1.52-.49-.04-.31.49,1.21.97c.49.29.9.74,1.21,1.2l1.72,1.26,1.59,1.47c-.4.38-.73.77-1.06,1.29l-.84-.45c.05-.45-.22-.97-.73-1.15l.23-.51c-.15-.2-.34-.26-.61-.27-.22-.38-.52-.74-.91-.8l-.1.12.51.39-.53.84,1.09.49-.78.03,1.13,1.14,1.14.34-.27.37-.65-.02-1.14-1.03-.93-.19-.3.33.22.39.26.13-.08.23-.33-.18c-.53.11-1.06.59-1.38,1.06-.43.17-.92.42-1.23.64l.14.7-.62.21c-.06.3-.31.63-.61.89l-.29.23.2.32c-.16.16-.29.35-.44.69l-.57.25.71,1.31,1.21,1.24-.78.26-.95,1.16c-.11.22-.3.4-.56.56l-1.2,1.25-.66.99c-.55.31-.8.59-1.12,1.15l-.68-.33.04-.82-.56-.37-.62.95-1.56-1.34c-.24-.12-.45-.33-.58-.55l-.65-.94.74-.85,1.37,1.39.07-.06.05-.34.46-.14.34-.04.05-.26c.23-.23.36-.45.45-.75l-.15-.11-.49-.68c.07-.47.15-.71.35-1.09-.25-.33-.28-.81.02-1.12.18.22.33.33.75.55l-.19,1.67-.41.62.14.17c.37.09.76-.19.97-.57l.72-.96.63-.79c.42-.33.72-.82.82-1.3l.43-.55c-.12-.11-.44-.24-.6-.28l-.41.28-.3-.23h-1.06c-.06.25.33.62.69.62v.21s-.18.08-.18.08l.06.06.07.34-.27.21.08-.45-.02-.07-.34-.04-.17-.37-.17.25-.42-.03.07-.57.58-.49-1.27-1.2-.61.69-.75,1.27c-.08.49-.26.91-.51,1.22l-.22-.59.38-.26c-.15-.39-.6-.8-.98-.75l-1.91,2.18-.21.42.36.31.05.44-.34-.02-.09.38-.46.12.18.2c-.34.02-.31.11-.07.19l-.95.46.59.67.1.2.3-.02-.16-.38.31-.05.04.47.44-.05.23-.63.27.37-.6.51.63.04-.49.5-.51.3c-.19-.18-.27-.37-.3-.68l-.92-.89c-.29.31-.38.67-.29,1.02l-.24.36.38.36.31.42.55-.07.3.99c.65.34,1.34.89,1.64,1.64l1.11.66c.24.6.53.95,1.06,1.38l-.3.31-1.89-1.82-4.42-4.33c-.61.08-1.1-.36-1.49.21-.59-.12-1.38.2-1.53.8l1.11,1.03.53.31.59-.31-.8-.83c.51-.3,1-.14,1.22.33l.71.62-.18.21.03.1.68.32.27.43.78.54c.4.27.76.67.55,1.22l-2.42-2.4v-.12s-.64-.09-.64-.09l-.47.44.32.17.29-.33-.03.72.56.69,1.32.13-.6.5-1.11.06.2.17.89.64.31.12.2-.2-.24-.32.4-.7.26.28-.31.45.3.6-.15-.05-.45.06-.12.67-.9-.07.6-.29-.47-.37-.38.29-.51-.25.37-.83c-.09-.04-.11-.06-.08-.04l-.38-.67c-.26-.19-.45-.38-.57-.76l-1.16-.5c.15-.38-.04-.69-.4-.86-.26-.39-.67-.73-1.02-.64l-.04-.5-.41-.18-.27.48c.08.1.27.22.47.33-.05.33,0,.87.18,1.16l1.01.98,1.77,1.7.49.54-.03,1.13c.11.59.09,1.02-.04,1.63l-2.82.56-2.42.25-1.13,1.2c-.14.43-.27.7-.5,1.01l-1.46-1.4-1.24.62c-.46-.26-.67-.91-.57-1.46-.35-.26-.49-.57-.32-.94l-.56-1.3c-.47-.22-.94-.61-1.12-1.1.51-.56.85-1.03,1.11-1.61.23-.08.47-.25.59-.46l3.93-4.61,1.24,1.27c.26.13.42.27.83.13l-1.21-1.26.44-.08.07-.4-1.76-.49c-.3.21-.69.68-.96,1.06l-.3.18v.34s-.74.55-.74.55c-.26.2-.44.59-.44,1-.33.51-.8.96-1.29,1.35l-.73.64-.28,1.19-.38-.33-.32.28-.24.25.22.26-.73.28c-.11.48-.25.81-.47,1.15l-.7-.82-.35,1.71-.61.13.47.31-.21.34c.41.16.9-.03,1.21-.35l.56-.21.45.39c.6.08,1.1.36,1.45.88l.37,2.76c-.6-.13-.76-.54-.79-1.04l-.21-1.4-.5-.05-.21-.51c-.42-.26-1.09.01-1.29.5l-.26.12.28.28-.15.79-.81-.72c-.09-.37-.27-.73-.56-.98-.65-.95-1.32-1.83-2.11-2.65l-.25-.6.95-1.05,1.73-2.25,2.42-2.85v-.4s.43-.2.43-.2l2.85-3.34,4.03-4.86,2.31-2.96c-.35-.11-.45.04-.52.24l-1.08.22c-.17.33-.31.52-.51.74-.36.25-.57.56-.7.98l-1.39,1.33-1.62,2.12c-.18.5-.53.91-.94,1.24l-1.46,1.29v-.78s-.25.76-.25.76l-.55.3.3.72-.63.35-.32.68c-.28.11-.49.03-.71-.16l-.43.94-.37,1.35-.69.68-.35-.02-.29.37c-.12.29-.39.52-.68.58l-.27.15.14.31.24.42-.43.24-.03-.23h-.13s-.03.15-.03.15l-1.13.53c-.15.4-.36.54-.64.62l.09.11h.2s.03.28.03.28l-.26.02-.06-.27-.08-.15c-.28-.14-.54-.12-.81.01-.3.27-.4.54-.3.93l-.51,1.53.1,1.08-.23-.21-.27-.08v1.21s-.56-.17-.56-.17l-.31.45-1.81-1.69-.15-.46-.93-.15-.42-.04-.12.38c.38.05.35.38.2.65.29.71.65,1.36,1.13,1.93l-.09.41c-.66-.13-.91-.3-1.24-1.03l-.43.67,1.1,1.25c.27-.01.57-.13.82-.35l.43-.05.21.45-.45.23c-.16.25-.51.61-.76.68l-.42-.56-.26.26.09.24c-.08-.02-.33-.08-.14-.04l-.26-.6.29-.3c-.37-.24-.43-.28-.68-.53l-.93.23.48-.59-.55-.82c-.2-.15-.61-.37-.84-.44l.28-.35-.34.03-.86-.89-.6.27.03.61-.76.28c.05.35.27.75.56.98l.1.66c.21.12.35.18.69.3l.42.36.16-.32.22.27-.14.17.15.66,1.31.21c.14.4.17.77.01,1.13-.21.34-.34.41-.92.67l.55.84c.63.07.92.52.99,1.06.39.26.7.58.86.96l.38.65.99.84c.18.24.35.58.38.82l-.68.84,1.21,1.25v.58s.45-.15.45-.15l.09.36.69.6c.19.31.28.51.35.89-.19.23-.38.39-.7.59l-.32.72-2.92-3.23-.15.15.03.44-.48.34.74,1.22-.53.11-.3-.48-.64-.48c0-.21.04-.43.13-.67v.04c-.38.09-.69-.17-.9-.53l-1.1-.83-.3-.5c.16-.15.42-.35.48-.38.5.51.66.72,1.09,1.05l.88.98v.09s.55.26.55.26l-1.3-1.69.1-.26.34.09.28.21.15-.12c-.14-.23-.46-.49-.67-.55l-.25.45-.31-.19-.75-.73-.63.28-.22-.73c-.61.1-1.28.63-1.08,1.45l.78.1.43.34-.37.56c-.02-.05.05.18.09.31l.23-.07.08-.27.36-.21.11.4.03.22.36-.07.12,1.02.19-.24.24.1v.31s-.35.86-.35.86l-.9.09c-.46-.14-.8-.2-1.28-.23v.55s-.64-.22-.64-.22l-.02.58c-.21.04-.29.04-.66-.1l-.3.2-1.16-1.35-1.93-2.13-.48.11-.09-.71-.59.75,3,3.61,2.19,2.48-.12.52.08.05.41-.13.08.53,2.1,1.99c.25.37.52.51.4,1.07l-1.14-1.1c-.2-.39-.52-.68-.91-.87l-1.03-1.37-.08-.04-1-1.14-.56-.4c-.06-.24-.23-.53-.43-.77-.27-.37-.47-.55-.84-.78.3-.12.17-.2-.11-.19-.25-.51-.43-.94-.94-1.12l-1.93-2.21c-.3-.29-.67-.52-1.03-.66-.07.59-.2.79-.71.82l-.3.46.33.46c.44.32.79.64,1.08,1.09l2.27,2.63c.15.51.43.9.79,1.25l1.04,1.06.14.07.59.85,1.77,2.05-.46.2-.22-.4-1.02-1.16-.89-1.07c-.25-.11-.42-.33-.52-.59-.45-.45-.86-.9-1.16-1.43l-.97-1.09c-.32-.51-.74-.92-1.23-1.21l-.73-.83c-.23-.39-.52-.71-.88-1.03l-.27-.47-.51.08c-.08-.3-.37-.55-.73-.51-.57.03-.96-.25-1.34-.61-.3-.13-.49-.25-.75-.47l.34-.75.69-.44.78-1.68c.28-.1.51-.26.58-.38l.33-1.31.61.14,1.15-1.49c.68-.93,1.53-1.72,2.43-2.46l.3-.86c.4-.01.46-.39.57-.67-.15-.3-.36-.48-.64-.7-.16-.33-.46-.51-.79-.54-.22-.46-.52-.81-.9-1.11l-.76-.54-.55-.66-.52.57c-.07.28-.17.51-.31.78-.76.44-.91,1.35-.42,2.06-.07.68-.61,1.24-1.27,1.36.06.51-.13.86-.52,1.05l-1.13,1.58-.52-.09-.08-.46-1.25.33c-.23.48-.43.66-.77.93l.49.11-.04.3-.44.04.07.47-.47.25.28,1.02.46.13-.03.56c.44.37.48,1.03.01,1.38l-.36.41-.62.11-1.3,1.84-.11.58-.45.12-.42.48-.66-.09-2.79-1.21-2.03-.8c-1.03-.93-2.29-1.36-3.62-1.66-.33-.31-.72-.48-1.11-.57l-.16-.8-.04-.93c.28-.39.53-.85.69-1.28l.43.24.53-.31c.3.88,1.28,1.21,2.05.73l.33-.55,1.16-.92-.99-.49c-.18-.12-.39-.22-.69-.31-.22-.59-.13-1.37.6-1.77l.04-.87c.43-.12.94-.38.92-.94l.7-.73c.35.09.56-.02.74-.29.33-.3.53-.59.62-1.04l.86-1.06.28-.52.64.25.22-.31-.32-.57.1-.35.57-.14.19-.39.54-.18-.59-.28.87-.86-1.17.03-1.41.06-.32-.06v-.3s.32-.09.32-.09c.78.02,1.48-.05,2.24-.17l1.01-.11.43-.11-.07-.45,1.27-1.23.37-2.04-.57-.56-.61.16-.31-.44c-.6-.58-1.23-1.04-2-1.5-.03-.29-.03-.56,0-.96-.31-.43-.86-.94-1.3-1.29-.05-.31-.14-.61-.26-.9l-.26-.53-.72-.08-.63.07-.19.51c-.27,0-.55.13-.62.46-.36.32-.73.5-1.28.66l-.74,1.42c-.78.53-1.52,1.12-2.04,1.94-.28.26-.48.41-.89.58l-.36.49-.88-.8-.88-.98.2-.42-.63-.26,1.14-1.32c.35-.24.76-.59.98-.88.11-.53.26-.9.46-1.29l-.67-.29c.53-.58,1-.8,1.79-.63.43-.32.81-.79,1.1-1.26l.8-.72,1.86-2.27c.49-.2.81-.53,1.06-.99.38-.31.54-.89.4-1.27l-.9-.02c-.17-.25-.3-.53-.41-.84l-.44.39.14.46-.62.2-.15-.67-.63.3-.46.27.44.51-1.2.31-.42,1.65c-.38.15-.77.43-1.01.78-.24.33-.5.53-.9.65-.53.42-1.02,1.02-1.36,1.63-.17-.25-.42-.51-.59-.58l-.73-.07c.35.58.93,1.03,1.44,1.34l-1.04,1.23-.73.66c0,.37-.1.56-.46.67-.31.03-.37-.01-.65-.57l-.32.52-.24.37-.33-.25-.79-.18.25-.61-.37.1-.22-.29-.32-.09-.04.36.46,1.07c-.23-.02-.48-.3-.64-.61-.18-.33-.3-.61-.32-.94l1.27-.84.33-.92c-.8-.22-1.72.03-2.2.63l-.96.52-1.51.25-.08-.46.41-.32c.44-.06.73-.4.68-.83l.77-.57.83.1.16-.31-.2-.19-.2.42-.73-.44c.6.02.76-.07,1.15-.47l.35.25.39-.3.73-.55c.28-.42.58-.74.93-.99.19.18.45.25.66.25.28-.06.56-.17.76-.35l.79-.93c.26-.16.46-.4.57-.7l2.67-3.11.97-.84c-.1-.36.09-.6.4-.78.13-.46.46-.74.94-.67l-.41.5.11.55-.35.22.44.53-.26.81,1.04-.84c.23.31.47.49.76.57l.81-.37c.51-.29.85-.64.79-1.29l1.91-2.34,2.24-2.64,1.18-1.41c.5-.46.88-1.04,1.18-1.64.26-.12.47-.35.52-.62.13-.53.36-.73.79-1.08l-.53-.05v-.24s.27-.22.27-.22c.31.18.69.29.95.24l-.2-.27c.1-.04.31-.12.17-.07l.53.37.4-.38-.24-.46c.26-.4.61-.76,1.02-.99l-.32-.52c.85.11,1.29-.44,1.38-1.14.45-.35.78-.78,1.01-1.3l.33.06.08-.32.5-1.17c.54-.11.93-.48,1.21-.96.43-.09.65-.36.8-.75.24-.2.39-.48.47-.81l2.3-2.73,1.33-1.41c.59-.05.93-.38,1.09-.95.11-.5.37-.89.87-1.12l.79,1.26c.08.15.25.31.44.47l.1.33.34.12c.06-.64.48-.97,1.01-1-.02-.34,0-.55.15-.78.25-.23.4-.3.7-.25l2.69-3.24-.7-.33-.14-.29c.16.28.17.23.13-.02l.14.18c.56.11.89-.58.91-1.14l.72-.32c.17-.34.47-.49.85-.51l-.17-.4.16-.18.28.36.99-1.21.35-.71.88-.68.38.62c.35.04.51.26.56.62.58.4,1.55.23,1.91-.32l.31-.85.58.23.12.4.56.11,1.13.97c.07.39.34.6.69.72l.92.51,1.67,1.32.07.7,1.19.61c.7.21,1.3.63,1.76,1.18l2.24,1.59-.07.75.35-.51,2.71,2.09c.52.28.97.63,1.35,1.08h.31s.09.37.09.37l1.59,1.22,1.83-.45-2.26,2.89-1.45-.95.83,1.59-.59.58c-.14-.79-.71-1.09-1.38-1.41l-.09-.9-.53-.06-.08-.37.33.06.14-.35.44.55.44.43c.25.02.6-.07.49-.22.27-.68.23-1.1-.27-1.54l-.78-.64-.71-.38.27.5-.16.05-.81-.56-.45-.94-1.44-1.04c-.32-.36-.71-.58-1.15-.78l-.42-.2-.27.2.51.21.07.35.4.14-.08.3-1.07-.84-.9-.37-.94-.25c.18.37.3.45.7.55l.28.45-.46.31.7.27-.58.54,3.12,2.44,2.21,1.8c.82.62,1.72,1.1,2.35,1.93l-1.16-.48c.19.38.24.6.13.91-.14.51-.47.77-.95.76l-.17.16.55.53-2.41,2.81-.43-.18-.03.25.05.05-.07.21-.15-.06-.68-.17.13.37.27.11-.64.46-.8-.64c.1-.53.13-.73.12-1.08l-.71-.6-.47.47c.08.73-.42,1.26-1.03,1.62-.21-.24-.45-.44-.72-.63h.47s.1-.48.1-.48l-.89.31c-.3-.39-.51-.59-.96-.94l-.42.71-1.6-1.37.27-1.78.15.37c.27-.54.27-1.15-.4-1.64l.93-.33-.51-.42.22-1.1,1.59,1.24.86-1.28,1.36-1.2c-.15-.46-.53-.77-.92-.93l-1.78-1.5c-.35-.14-.62-.38-.83-.7-.59-.18-1.2-.38-1.56-.88l-.51-.25-.41.38-1.7,2.03-1.45,1.62-.94,1.15-.81.41-.13.92-1.4,1.7c-.39.09-.53.24-.71.7l.58.13h.65s.26.61.26.61l.89.64,1.05.62,1.15,1.05.76.65,1.77,1.68.13.72.18-.21.11.17c.25.17.58.34.91.46.72.95,1.6,1.75,2.58,2.44l1.98,1.37.29.24.41-.22c.18-.85.71-1.67,1.46-2.07l.58.12.29-.55-.25-.32.2-.53,1.89-2c.19-.31.25-.62.17-.98l.94-1.24.23.09.14.42.97-.97.84-.93c.19-.46.4-.79.89-1.12l-.21,1.33-.31,1.29c.32.08.66-.02,1.1-.29l-.05.89.53-.37-.16,1.8.7-.15-.36.61.24.21.43-.18.55.71.36.04.29-.38,1.41.51c.27,0,.7-.39.84-.71-.59-.26-.97-.38-1.51-.48-.16-.37.36-.97.77-.78l-.43.26.25.44.9-.52.31.13.11-.39-.83-1.21c.21-.17.48-.33.79-.5l.91.39-.24.23-.15.1.58.31.4.52.62-.14.33.27-.24.25.24.06.12-.15.7.1c.13-.22.11-.48.05-.74l-.04-.26.17-.11.14.28.2-.66c-.54.05-.96-.08-1.06-.69l.63.51c.33-.12.72-.1,1.06.01l.38,1.06.88.4-.08-.42.42.2.04-.22-.17-.15c-.22-.26-.4-.54-.55-.84l-.78-1.13.05-.39-.35-.13-.63-1.09.44-.39c-.62-.31-.81-.7-.78-1.19.52-.05.78.15,1.07.63l.26-.9.35.27-.2.34-.16.44.25.29.8,1.1.42.11-.23.28-.34.4.17.5c.16.3.39.52.78.53l1.02.99.41-.09.11.47c-.04.44-.16.66-.64.85l.46.2-.38.17.25.76ZM68.5,34.96l.05-.4-.22-.07-.2.16-.1.15.29.21.17-.07ZM78.7,44.11c-.15-.75-.02-.95.19-1.36-.21-.31-.31-.57-.29-1.04l-.76-.27-.47-.37-.47.43c-.16-.16-.25-.46-.17-.82-.46-.62-1.27-1.13-1.97-1.38l-.16.68c.25.19.62.56.7.97l.62.61c.11.43.42.81.98.63l.44.26-.35.38c.06.31.38.63.73.76l.37.54c.22.08.57.07.61,0ZM59.98,42.81l-.02.64.86-1.21c.31-.35.52-.85.34-1.27l-.48.52-.53-.17.13.69c-.3.43-.71.83-1.14,1.15.02.2.17.31.22.05l.63-.4ZM79.06,42.24l.2.27.07-.22-.27-.05ZM80.06,43.42l.42-.37-.24-.44-.39-.22-.41.18.63.85ZM78.96,42.63l.28.29.05-.18-.33-.11ZM60,44.77l-.23-.17-.17-.29-.59.86.99-.4ZM80.52,45.25l-.58-.6-.23.27.68.48.13-.15ZM58.83,45.61l-.43.13-.75.87c.45-.14.73-.38,1.18-.99ZM63.7,47.59l-.31-.24v.58s.24-.19.24-.19l.06-.15ZM63.96,48.18l.28-.69c-.49.01-.49.4-.28.69ZM44.63,49.51c-.29-.46-.31-.57-.41-1.09-.18-.04-.59.09-.77.26l-.55.98c.45.05.79.14,1.24.35l.49-.02v-.49ZM89.63,48.81l.12-.13-.12.13ZM93.15,50.81l-1.81-.47.63,1.18c.55-.11.91-.33,1.18-.71ZM93.17,50.48l-.06.06.06.06.06-.06-.06-.06ZM59.69,50.71l-.33.35.23.09.18-.2-.09-.24ZM40.35,51.9c.18-.14.23-.36.16-.66-.18.14-.23.36-.16.66ZM55.8,52.92l-.54-.12c.56-.18.81-.22.92-.74.1-.25.35-.43.62-.51l-.06-.36-.34.09-1.32,1.6-1.53,1.94-.48.16.13.52,1.9-2.26c.31-.06.6-.22.71-.33ZM39.69,53.05l.61-.99c-.67-.1-.71.45-.76.87-.42-.06-.66-.1-.91.03-.25.21-.33.37-.35.68l1.41-.59ZM56.34,52.67v.08s0,.09,0,.09v.08s0-.08,0-.08v-.17ZM80.98,55.56l-.1.83c.59-.37.8-.77.98-1.29l.68-.43.51-.81.71-1.05-.35-.13-.24.23-2.07,2.63-.12.03ZM80.99,55.38c.16-.41.34-.7.3-1.13-.37.57-.49.91-.93,1.29l-.44,1.12c-.13.28-.06.6.12.83l-.29.29.28.21.24-.12.25-.14.37.29-.3-.49v-1.27c.06-.28.17-.59.3-.77l.12-.1ZM57.11,55.37l-.06.06.06.06.06-.06-.06-.06ZM51.18,58.01c.42-.25.55-.51.65-.89l1.31-1.5-.22-.18-.91.94-.33.12-.04.28c-.27.4-.4.74-.46,1.23ZM54.56,59.18c.12-.53.3-.71.63-.91.24-.58.61-1.15,1.13-1.56l.76-1.12c-.45.26-.68.53-.98.9l-1.14,1.29-1.13,1.13c.03.24.06.37.21.6l.53-.33ZM33.32,59.96c.46-.19.82-.72.92-1.19l.9-.83c.28-.23.57-.54.57-.87l-1.62,1.36c-.36.4-.84.85-1.25,1.06l.48.48ZM62.78,60.61c-.27.24-.35.48-.26.63l2.49-3.23-.42-.04-.06.49-.62.34-.76,1.23-.4.14.02.44ZM48.42,58.94l-.31-.58c-.35.26-.54.44-.77.88l1.09-.31ZM47.19,59.36l-.06.06.06.06.06-.06-.06-.06ZM45.37,62.14c0-.35.13-.55.33-.71.35-.28.49-.57.55-1.04l.57-.05.31-.77-.97.56-.22.61-1.55,1.98.97-.58ZM75.2,62.24l1.37-1.64-.25-.71-.63.4.51.27-.28.33-.48-.22-.4.35c-.18.53-.57.87-.98,1.19l-.72,1c-.05.28-.06.66-.01,1l1.76-1.91.1-.06ZM47.34,62.31l1.14-.99.11-.34-.37-.12-.1.39-.77,1.06ZM48.6,62.94c.58-.35,1.39-.85,1.09-1.74l-.64.87c-.46.49-.84.93-1.13,1.55l.67-.68ZM56.63,68.29l1.23-1.65c-.38-.02-.62.12-.75.24l.06.35-.21.08-.09-.19c-.34.31-.63.51-1.02.62l-.18-.7c.16-.11.36-.18.55-.22l.46.03.16-.37.6-1.3.42-.79.61.63.44-.25c-.02.72-.45.57-.9.62l.49.27-.43.09.14.28.41.06.94-1.24c.2-.28.56-.46.89-.49-.1-.35,0-.77.32-.98l1.56-1.88-.22-.03-1.13,1.17-.28.52-.45-.43-.11.07-.04.34-.4-.41c-.42.74-1.03,1.03-1.8,1.11-.12.41-.34.7-.68.79l-.85.37-.57.72-.09-.43-.69.84c-.19.14-.29.3-.39.57l.6.24-.66.25v.64s-1.03,1.58-1.03,1.58c-.38,0-.52.3-.43.54l1.86-1.4.41-.32.42.21.44.22.34-.35ZM42.21,61.89c-.3-.03-.28-.03.06,0,.14.01.09,0-.06,0ZM46.54,63.25l.76-.92c-.39.21-.63.5-.76.92ZM75.25,62.44l.17-.1-.17.1ZM43.92,63.36c.25-.14.37-.3.5-.5-.25.13-.45.27-.5.5ZM43.95,66.53c.24-.48.59-.9,1.05-1.31.54-.64,1.11-1.24,1.43-1.93l-2.18,2.47c-.32.06-.37.39-.3.76ZM42.06,65.71l1.1-1.18.82-1.07-.66.21-.88,1.3c-.28.15-.45.48-.38.74ZM46.74,64.87h.19s.91-1.14.91-1.14l-.16-.14-.94,1.28ZM101.98,63.83l.16-.07-.16.07ZM46.64,64.91l-.47.58.17.14.47-.58-.17-.14ZM91.59,66.3c-.11.06-.36.21-.3.17v-1.25s-.4.3-.4.3l-.24-.24-.56.51-.09.56.41.36.83.44c.23-.56.21-.61.78-.7l-.09-.37-.36.23ZM45.22,66.72c.45-.33.73-.65,1.03-1.1-.45.29-.81.61-1.03,1.1ZM79.53,72.9c-.03-.31.03-.49.16-.65l.92-1.17.57-.71,1.57-1.66c.15-.22.38-.39.64-.53l1.1-1.73-.81-.58-.42.02.02.38-.53.22c-.26.35-.47.58-.76.84l-2.26,2.65.16.34-.3.41c-.15.58-.35,1.13-.76,1.54-.42.75-.85,1.4-1.39,2.06l1.29-.43.8-.99ZM70.76,67.44c.1-.58.15-.68.4-1.07v-.4s-.33.08-.33.08l-.44.31-.02.48-.49.76.88-.16ZM45.85,69.41c.5-1.14,1.46-1.83,2.62-2.08l-.73-.05.59-.89c-.4-.14-.76.13-.85.54l-.58.08.14.65-.45.17-1.47,1.67.74-.09ZM92.88,66.65l-.54-.36.04.42.5-.06ZM45.22,67.09c.03-.27-.32-.43-.3.07-.21.05.08-.02.3-.07ZM44.73,67.23l-.77.81.18.17.77-.81-.18-.17ZM95.01,69.87l-.23-.35.15-.18.8.34-.11-.65-.49.15c-.55-.32-1.05-.71-1.51-1.21l-.85-.33-.53.63c.83.05,1.26.33,1.42,1.1l.83.34v.31s.3.14.3.14l.3.15.1-.21-.18-.24ZM43.95,68.13l-.53.56.17.16.53-.56-.17-.16ZM42.42,69.94l.26.07.86-1.14-.19.04-.93,1.03ZM83.54,70.47l1.19-.19-.05-.61-.6-.02-1.08.87c-.39.23-.71.46-1.01.84l1.54-.89ZM22.89,70.99l.45-.67.08-.42-.47-.06c-.29.41-.53.71-.89,1.04-.23.13-.4.33-.38.46.05.36.19.47.37.39l.84-.74ZM67.36,71.57l.24-.58c.48-.29.75-.62.77-1.27-.44.22-.74.48-1.05.85-.25.29-.47.43-.86.61l.35.46.55-.06ZM51.17,85.42l.83.09-.61-.97-.07-.52-1.12-1.24.35-.23.12.32,1.07.98.12.48.55-.02-1.65-1.78c-.23-.3-.54-.58-.85-.6l-.34-.58-.71-.02-.65-.77-.39-.76c-.29-.74.22-1.43.83-1.79.18-.32.37-.59.6-.82l1.75-2.26c.23-.38.49-.69.87-.93l1.57-1.94c.13-.23.27-.59.3-.8l-.83-.15v-.93s-.52.18-.52.18l.15.7-.51.28c-.23.58-.65.91-1.29,1l-.27.31.31.2.48.25.57-.26-.16.89-.67.67-.56.67-.25-.23-.27.33c-.14.73-.71,1.16-1.48,1.19l-.45.56.32.07-.13.31c-.23.34-.42.73-.56,1.1l-1.3.78-.33.1-.25-.24c-.21.37-.36.54-.72.76l-.05.7c.63.81,1.12,1.53,2,1.96.03-.41.01-.65.38-.84.03.23-.05.51-.16.74.38.22.69.55.58,1.11l.34.27.33-.32.3-.63,1.25,1.94c-.19.43-.12.73.19,1.1l.35.2.09-.32-.13-.11.14-.06.07.07.16.13.13-.02-.16-.3.23-.2.03.18-.07.21.16-.18ZM55.7,70.21l.2.27.24-.09-.13-.16h-.31ZM45.68,71.28l-.49-.83c-.31.25-.37.39-.35.66.2.26.32.3.84.17ZM26.72,71.21l-.06.06.06.06.06-.06-.06-.06ZM62.78,76.95l.81-.85-.03-.36.38-.07,1.54-1.84c.32-.39.58-.87.7-1.3l.55-.2.14-.59-.58.35c-.38,0-.65.21-.57.69l-1.14.7c-.5.22-.84.63-1.06,1.08l-.64.42v.63s-.1,1.35-.1,1.35ZM79.75,75.46l.86-.9,1.09-1.05c-.64-.21-1.3.02-1.47.69l-1.04.73-.81,1.01c.39.25.98-.12,1.38-.49ZM82.35,76.62l-.06.06.06.06.06-.06-.06-.06ZM57.42,82.86c.56.08.75-.28.92-.69l.63-.79.91-1.03c.74-.57,1.31-1.32,1.71-2.13.32-.18.44-.39.6-.74l.12-.84-.5.47h-.72s-.25.8-.25.8c.19.42.17.63-.08.82-.24.12-.48.2-.66.21-.16.46-.55.91-.99,1.36-.79.16-1.27.78-1.45,1.57-.28.29-.37.68-.23,1ZM82.04,76.92l.46.35v-.27s-.46-.08-.46-.08ZM62.65,77.01l-.06.06.06.06.06-.06-.06-.06ZM90.95,77.4l.2-.12-.2.12ZM85.41,77.65c0-.08-.07-.15-.15-.15s-.15.07-.15.15.07.15.15.15.15-.07.15-.15ZM73.27,85.17l.7-.09c-.34.73-.36,1.29.03,1.86l.38-.15-.05-.21-.25-.07.41-.81.58-.92c.13-.15.08-.22-.24-.09-.06-.16.03-.53.21-.74.44-.5.75-1,1.04-1.58.34-.33.65-.71.91-1.13l1.68-1.81c-.07-.36.08-.54.45-.57l-.27-.21-.38.19-1.1.99c-.21.35-.53.59-.93.73-.44.15-.7.48-.68.9l.37.13-.16.31-.49.91-.47.6-1.03,1.14c.01-.47.21-.64.54-.86l.25-.77-.95.83-.77.87.06,1.1.44-.1v-.24s-.32-.22-.32-.22ZM51.14,80.1c0-.08-.06-.14-.14-.14s-.14.06-.14.14.06.14.14.14.14-.06.14-.14ZM50.87,80.49l-.7-.29-.29.14v.13s.34.07.34.07c.28,0,.5-.02.65-.05ZM37.23,81.26c0-.08-.06-.14-.14-.14s-.14.06-.14.14.06.14.14.14.14-.06.14-.14ZM42.23,82.49l.65-.85.32.32.16-.16-.45-.52-.48.19c-.33.25-.64.34-1.11.39l.16.8.74-.16ZM54.64,83.53l.85-.17-.05-.37-.65.21-.15-.36-.35.1.29-.46.59.05.02-.26h-.39s0-.41,0-.41c-.3.4-.29.5-.83.6l.13,1.67.65.41-.17-.75-.08-.03-.09-.09-.1-.18h.15s.1.03.1.03l.07.13v-.11ZM45.67,84.24c-.48-.36-.8-.67-.76-1.27l-1-.41c.05.69.42,1,.87,1.15l-.2,1.22c.45-.42.51-.48,1.09-.69ZM41.58,84.18l.19-1.02-1.11.13-.55,1.76.52.07.08-.37c.16-.3.28-.44.88-.57ZM48.51,85.24l-1.16-1.24c-.1-.18-.26-.39-.34-.45l-.46.34.37.41,1.44,1.67.15-.73ZM51.19,85.48l-.15.13.15.04.13-.11-.12-.06ZM75.61,85.6l-.6-.06-.48.38.42.52.66-.84ZM51.24,85.7l.1.03-.1-.03ZM55.18,88.5l-1.02-1.26-1.53-1.69-.09.84-.62-.07-.18.82.9.84.22.31.31.02.43.28.39-.57s.4.02.57.03l.19.68.27-.13.14-.1ZM59.58,88.4h-.08s.08,0,.08,0h.17s-.08,0-.08,0h-.09ZM55.2,88.57l-.05.09-.12.57.54-.28-.36-.37ZM36.28,99.09l1.75-1.47-.26-.45c.09-.22.12-.25.15-.61l-1.21,1.69c-.34.18-.58.45-.42.84ZM57.19,96.71c0-.08-.06-.14-.14-.14s-.14.06-.14.14.06.14.14.14.14-.06.14-.14ZM57.94,97.61l-.09.15c.21.09.35.04.09-.15ZM52.85,99.01l-.19.18.15.21c.21.34.36.5.71.55.29.16.65-.07.83-.35-.78-.45-1.1-.95-1.69-1.64l.26.99.11.07-.05.13-.12-.14ZM58.58,98.3l-.1-.26h-.26s.1.28.1.28l.2.04.07-.06ZM58.67,98.36l-.08.09.05.1.14-.13-.11-.06Z"/>
        <path class="cls-1" d="M123.22,81.69l-1.32-.26c0,.33-.29.73-.57.9l.45,1.61.83-.13.55-.81.17-.51h.49s-.35-.59-.35-.59l.68.4.3.7-.51.49c-.48.13-.75.28-1.09.66l-1.55.29-.76.26-.32-.38-1.23.55c-.52.44-1.01.77-1.65,1.08-.25.13-.22.61.07.73l.46.98-1.33.84-.83.56c.04.77.29,1.66.58,2.51-.49.65-.78,1.33-.51,2.17l-.95.95-.03-.55.64-.44-.26-.23.1-.92-1.39.23-1.19,1.02c-.44.11-.73.5-.51.97v1.03c.43.37,1.16.19,1.62-.12l-1.09.97c-.53.22-.75.72-.8,1.26-.2.76-.87,1.12-1.59,1.35-.04.47-.29.72-.78.67l.12.65-.28-.04-.08-.32.24-.99c-.41.38-.38.44-.91.5l-.27,1.17.17.89c-.27.28-.75.45-1.16.51l-.36-.05.06-.4c-.29-.19-.65-.47-.86-.69.54-.35.68-.45.97-.79-.15-.69.29-.99.76-1.25l.47-1.57c.11-.56.41-.93.9-1.2.18-.25.4-.43.71-.59l.45-.97-.51-1.28.5-.6c.67-.1,1.16-.5,1.34-1.12.25-.34.45-.52.91-.39.18-.33.27-.58.4-1l.2.21.78-.73-.84-.52-1.98-1.76c-.67-.77-1.41-1.48-2.24-2.07-.55,0-1,.19-.97.72.16.2.17.4.01.55-.24.14-.43.07-.59-.13-.36-.38-.5-.75-.33-1.21l.36.52c.6-.09.75-.62.66-1.13l.08-.09.04-.53-.42-.25.67-.34.55.49,1.34,1.35.43.33-.49.47,1.33,1.15.92.89,1.19.8,1.07-.9c.16-.17.21-.47.12-.77.53.08,1.04-.35,1.27-.89l-.45.05-.08-.36.13-.29-.36-.18.07.5-.68.34c-.06-.19-.35-.55-.64-.68l-.49-.44.74.29.03-.95-.3.38.05-.94-.27.38-.31-.04s-.12-.31-.09-.24l.67-.58c-.42-.2-.69-.18-.95-.06-.4-.32-.67-.5-1.25-.81l.69-.69c.44.14.44.14.8.08l-.91-1.01-.5.05.04.44-.66.1-.23.63-.64.06c0,.23.18.54.45.67l.36.42.98.43-.54.67.55.2v.39s-.22-.25-.22-.25l-.24.14c-.23.28-.58.42-.94.39-.81-.71-1.41-1.46-1.94-2.35.25-.7.67-.99,1.36-1.1-.46-.11-.74,0-1.15-.37l.86.06-.31-.78-.52-.71-.36.6.1.1.16.07v.24s-.19.14-.19.14l-.09-.4-.06-.1-.58.04-.84-1.1c-.45.32-.75.07-.89-.36l-.62-.42-.45.48.69.48c.29.22.57.57.75.9l.02.27.4-.04-.18-.35-.11-.19.02-.17.27.16c.43.54.73.67,1.5.92l-1.08.36-.85.17-.55-.59-.61-.61c-.18.36-.5.85-.74,1.07-.32-.38-.34-.41-.75-.66-.2,0-.47.23-.66.54l-1.86,1.96c.12.54.15,1.02.05,1.46-.34.19-.44.39-.47.79l-.89.39.08-.86-.65.34c-.03.36-.19.55-.48.59l-1.92,1.94.94,1.16-1.29,1.48-.48.11.02.56-.41.45-.44-.54-1.01.07-.53-.15-.36.57.07.67.76.19c.13.14.06.68-.13.9l-.09.42.41.05.29.07-.09.23-.29-.1-.91.28-.74-.55h-.12s.15.42.15.42l-.41.16c-.3.24-.63.41-1.02.5l-1.7,2.29-.9,1.81.17.49c-.7.37-1.07,1.3-.53,2.07l-.2,1.51-.33,1.7c-.51-.08-.92-.25-1.29-.62l-1.38-.79-.07-.53.41-.91c.24-.2.32-.43.37-.79l.28.22.18-.33-.43-.25.56-.1-.03-.64.78-.15.1-.73.28-.19v-.35s.25-.25.25-.25l-.04-.97.69.26c.16-.17.26-.38.34-.62l.55-1c.16-.3.33-.73.34-.99-.27-.43-.35-.67-.36-1.03l1.31-2.17-.97-.38c-.78.41-1.45.71-2.23.9l.53-.78-.52.02-.1-.27-1.37.25-1.71-1.65v-1.06s-.83.39-.83.39l1-1.86c.09-.36.32-.69.61-.74l.13-.09c-.08-.11-.26-.22-.54-.33l-.25-.41-.85-.28-.53.68c-.09.23-.33.39-.57.42l-.26,1-.92.41c-.49.2-.83.58-1,1.07l-1.18,1.15-.77.05.57.36.32.82.72-.55.58.29c.05.5.1.57.35.86l.03,1.3-.96-.22c-.75-.07-1.39.02-2.06.38-.75.44-1.8.69-2.07,1.59.84-.64,1.48-1.18,2.4-1.37.35-.2.74-.15,1.04.14l1.05-.27-.1.65-1.09,1.18-.99-.86-.54-.04-.3.48-.21-.52c-.33.22-.69.75-.4.99.19.56-.22,1.13-.7,1.55l-.1.5h-.36c-.13.64.3,1.21.93,1.45.42.27.69.6.33,1.14.13.35.4.67.73.89l.62.45-.19.52c-.08.4-.36.78-.71.93l-.11-.31-.93,1.09-.76.91c-.16.49-.58.57-1.07.54l-.66-.23.14-.71c.35-.29.43-.68.26-1.03-.7-.18-1.22.17-1.57.74l.48.45-1.23,1.47c.44.22.66.33.79.52-.38,0-.73.3-.86.72l-1.69,3c.55.59.4,1.24-.05,1.73l-.41-1.28c-.13-.39-.18-.69-.25-1.22l-.73.07c0,.53-.4.94-.83.98l-.39-.3-.18.38-.31.34-.43-.32-.29.79c-.37.2-.54.39-.77.69-.25.17-.61.54-.66.68l.59.39-.82.18-.19,1.38c-.35.3-.39.59-.38,1.12l-1.11.25c-.09-.45.06-.68.35-.92l-.35-.72-.33.02c.05.62-.11,1.06-.71,1.29-.05.41-.04.98.07,1.31l.36.63-.65.33-.29.89c-.35.13-.66.36-.7.66-1.08-.33-2.17-.74-3.22-1.3l-1.95-.46c-.49-.34-.87-.61-1.15-1.07-.54-1.39-1.27-2.59-2.15-3.78l-1.79-.77c-.56-.47-1.04-1.02-1.31-1.67.09-.58-.17-.96-.61-1.2l-1.63-1.74c-.88-1.12-1.52-2.35-2.07-3.67l-2.67-3.43c-.28-.13-.54-.31-.76-.52-.58-.71-1.22-1.29-1.97-1.77l-.88-1.34.36-.41c.46-.34.43-1.01-.01-1.38l.03-.56-.46-.13-.28-1.02.47-.25-.07-.47.44-.04.04-.3-.49-.11c.34-.27.53-.45.77-.93l1.25-.33.08.46.52.09,1.13-1.58c.39-.19.58-.54.52-1.05.66-.12,1.2-.68,1.27-1.36-.49-.71-.34-1.62.42-2.06.15-.27.24-.5.31-.78l.52-.57.55.66.76.54c.38.3.69.66.9,1.11.33.03.63.22.79.54.29.22.49.4.64.7-.11.28-.18.66-.57.67l-.3.86c-.9.73-1.75,1.52-2.43,2.46l-1.15,1.49-.61-.14-.33,1.31c-.07.13-.29.28-.58.38l-.78,1.68-.69.44-.34.75c.25.22.45.34.75.47.38.36.76.64,1.34.61.36-.04.65.21.73.51l.51-.08.27.47c.36.32.65.64.88,1.03l.73.83c.49.29.91.7,1.23,1.21l.97,1.09c.31.53.71.98,1.16,1.43.1.27.27.48.52.59l.89,1.07,1.02,1.16.22.4.46-.2-1.77-2.05-.59-.85,1.47.85c-.18-.6-.54-.95-.99-1.32l-.43-1.12-.67-.03.24.63.25.93-1.04-1.06c-.36-.36-.64-.75-.79-1.25l-2.27-2.63c-.29-.45-.64-.77-1.08-1.09l-.33-.46.3-.46c.5-.04.64-.23.71-.82.36.14.74.37,1.03.66l1.93,2.21c.52.17.69.6.94,1.12.28,0,.41.07.11.19.37.23.57.41.84.78.2.24.37.53.43.77l.56.4,1,1.14.1-.12.12-.52-2.19-2.48-3-3.61.59-.75.09.71.48-.11,1.93,2.13,1.16,1.35.3-.2c.37.14.45.14.66.1l.54.15.13-.51v-.55c.47.04.8.1,1.27.23l.9-.09.35-.86v-.31s-.23-.1-.23-.1l-.19.24-.12-1.02-.36.07-.03-.22-.11-.4-.36.21-.08.27-.23.07c-.04-.12-.1-.36-.09-.31l.37-.56-.43-.34-.78-.1c-.19-.82.47-1.35,1.08-1.45l.22.73.63-.28.75.73.31.19.25-.45c.21.05.53.32.67.55l.06.11c.26.19.12.24-.09.15l-.12-.15-.28-.21-.34-.09-.1.26,1.3,1.69-.55-.26-.15.08c-.09.24-.14.45-.13.67l.64.48.3.48.53-.11-.74-1.22.48-.34-.03-.44-.03-.05-.05-.1-.08-.09-.2-.04-.1-.28h.26s.1.26.1.26l.09.06.11.06.05.03,2.92,3.23.32-.72c.32-.2.51-.36.7-.59-.07-.38-.16-.58-.35-.89l-.69-.6-.09-.36-.44.15v-.58s-1.22-1.25-1.22-1.25l.68-.84c-.03-.23-.2-.58-.38-.82l-.99-.84-.38-.65c-.16-.38-.47-.7-.86-.96-.07-.54-.36-.99-.99-1.06l-.55-.84c.58-.25.71-.32.92-.67.16-.36.13-.73-.01-1.13l-1.31-.21-.15-.66.14-.17-.22-.27-.16.32-.42-.36c-.34-.12-.48-.18-.69-.3l-.1-.66c-.29-.23-.51-.63-.56-.98l.76-.28-.03-.61.6-.27.86.89.34-.03-.28.35c.22.07.64.29.84.44l.55.82-.48.59.93-.23c.26.25.32.3.68.53l-.29.3.26.6c-.19-.05.07.02.14.04l.37.21.04.57.17-.71c.25-.07.6-.44.76-.68l.45-.23-.21-.45-.43.05c-.25.21-.55.33-.82.35l-1.1-1.25.43-.67c.32.74.57.91,1.24,1.03l.09-.41c-.48-.58-.84-1.22-1.13-1.93.15-.27.18-.6-.2-.65l.12-.38.42.04.93.15.15.46,1.81,1.69.31-.45.56.17v-1.21s.27.08.27.08l.23.21-.1-1.08.51-1.53c-.1-.39,0-.66.3-.93.27-.14.53-.15.81-.01h.09c.28-.07.49-.22.64-.62l1.13-.53-.08.41-.43.08.56.4.13-.8.43-.24-.24-.42-.14-.31.27-.15c.29-.07.56-.29.68-.58l.29-.37.35.02.69-.68.37-1.35.43-.94c.22.19.43.27.71.16l.32-.68.63-.35-.3-.72.55-.3.23-.76v.78s1.48-1.29,1.48-1.29c.41-.33.77-.74.94-1.24l1.62-2.12,1.39-1.33c.13-.43.34-.73.7-.98.2-.21.34-.41.51-.74l1.08-.22c.08-.2.17-.35.52-.24l-2.31,2.96-4.03,4.86-2.85,3.34-.44.2v.4s-2.41,2.85-2.41,2.85l-1.73,2.25-.95,1.05.25.6c.78.82,1.46,1.7,2.11,2.65.29.25.47.61.56.98l.81.72.15-.79-.28-.28.26-.12c.2-.49.87-.76,1.29-.5l.21.51.5.05.21,1.4c.03.5.19.91.79,1.04l-.37-2.76c-.35-.52-.84-.8-1.45-.88l-.45-.39-.56.21c-.31.31-.8.5-1.21.35l.21-.34-.47-.31.61-.13.35-1.71.7.82c.23-.34.36-.66.47-1.15l.73-.28-.22-.26.24-.25.32-.28.38.33.28-1.19.73-.64c.49-.39.96-.84,1.29-1.35,0-.4.18-.8.44-1l.73-.55v-.34s.31-.18.31-.18c.26-.38.65-.85.96-1.06l1.76.49-.07.4-.44.08,1.21,1.26c-.41.14-.57,0-.83-.13l-1.24-1.27-3.93,4.61c-.12.21-.36.38-.59.46-.26.58-.6,1.06-1.11,1.61.18.48.65.88,1.12,1.1l.56,1.3c-.17.37-.03.68.32.94-.1.55.11,1.2.57,1.46l1.24-.62,1.46,1.4c.24-.32.36-.58.5-1.01l1.13-1.2,2.42-.25,2.82-.56c.13-.61.14-1.04.04-1.63l.03-1.13-.49-.54-1.77-1.7-1.01-.98c-.18-.29-.22-.83-.18-1.16-.21-.11-.39-.23-.47-.33l.27-.48.41.18.04.5c.35-.1.76.25,1.02.64.36.17.55.48.4.86l1.16.5c.11.38.31.56.57.76l.38.67.08-.17,1.11-.06.6-.5-1.32-.13-.56-.69.03-.72-.29.33-.32-.17.47-.44.65.09.11-.09.18-.21-.71-.62c-.22-.47-.71-.64-1.22-.33l.8.83-.59.31-.53-.31-1.11-1.03c.15-.6.94-.92,1.53-.8.38-.57.88-.13,1.49-.21l4.42,4.33,1.89,1.82.3-.31c-.53-.43-.82-.78-1.06-1.38l-1.11-.66c-.3-.75-.99-1.3-1.64-1.64l-.3-.99-.55.07-.31-.42-.38-.36.24-.36c-.09-.35,0-.71.29-1.02l.92.89c.03.31.12.5.3.68l.51-.3.49-.5-.63-.04.6-.51-.27-.37-.23.63-.44.05-.04-.47-.31.05.16.38-.3.02-.1-.2-.59-.67.95-.46c-.24-.09-.27-.17.07-.19l-.18-.2.46-.12.09-.38.34.02-.05-.44-.36-.31.21-.42,1.91-2.18c.39-.05.83.36.98.75l-.38.26.22.59c.25-.31.43-.74.51-1.22l.75-1.27.61-.69,1.27,1.2-.58.49-.07.57.42.03.17-.25.17.37.34.04.08-.08.18-.08v-.21c-.36,0-.75-.37-.69-.6h1.06s.3.22.3.22l.41-.28c.15.03.47.17.6.28l-.43.55c-.1.48-.41.96-.82,1.3l-.63.79-.72.96c-.22.38-.6.66-.97.57h-.03c-.08.29-.21.51-.45.74l-.05.26-.34.04-.46.14-.05.34.24.08-.2.12-.11-.14-1.37-1.39-.74.85.65.94c.13.21.34.43.58.55l1.56,1.34.62-.95.56.37-.04.82.68.33c.31-.56.56-.85,1.12-1.15l.66-.99,1.2-1.25c.26-.16.45-.34.56-.56l.95-1.16.78-.26-1.21-1.24-.71-1.31.57-.25c.15-.34.28-.53.44-.69l-.2-.32.29-.23c.29-.26.54-.59.61-.89l.62-.21-.14-.7c.31-.22.8-.47,1.23-.64.33-.47.86-.95,1.38-1.06l.33.18.08-.23-.26-.13-.22-.39.3-.33.93.19,1.14,1.03.65.02.27-.37-1.14-.34-1.13-1.14.78-.03-1.09-.49.53-.84-.51-.39-.14-.11.16-.07.08.06c.39.06.69.42.91.8.27.01.47.08.61.27l-.23.51c.51.18.78.7.73,1.15l.84.45c.33-.51.66-.9,1.06-1.29l-1.59-1.47-1.72-1.26c-.31-.46-.72-.91-1.21-1.2l-1.21-.97.31-.49.49.04,1.86,1.52c.3.29.57.63.78.97,1.04.53,1.89,1.13,2.68,2.04l.65-.21-.72-.64c-.75-.39-1.35-.97-1.97-1.53l-3.99-3.35-1.13-1.15c-.68,0-1.54.2-2.11.61-.19.31-.39.48-.68.65l-1.35,1.29c-.11.4-.28.76-.52,1.06l-.76.84.05,1.12,1.1.48c.1.51.52.82,1.02.76l.91,1.21-.46.09.05.24.34-.11.8.06.09.68-.57.36c-.33.21-.48.87-.36,1.26.67.21,1.27.47,1.38,1.22l-.94-.18.13-.49c-.28.19-.44.27-.7.16l-.73.02.02-.48c-.23-.21-.37-.39-.53-.62l-1.12-.57c-.42-.17-.7-.44-.87-.91l-3.06-2.43.15-.57-.46-.15.05-.33c.38.21.85.19.95-.12l-.55.08.38-.7c.05-.42.41-.73.85-.77l.75-.84c.28-.24.51-.51.69-.84l.8-.89c.37-.34.7-.74.97-1.14l.42.16.46-.26c.2-.22.36-.42.48-.68l2.09-2.14.69-.12.09.62.31-.41,2.1,1.71.1.08-.07.17-.11-.14-.1.19.27.09.91.3-.59,1.01.78.08.18-.82c.77.44,1.49,1.1,1.96,1.88.45.22.84.48,1.22.81l1.68,1.42,2.57,2.48,3.11,4.07,1.37,2.88.89,1.48-.33.75,1.22,1.38,1.21,1.5.78.53.93-.38c.02-.56.4-.74.92-.71.48.28.86.68,1.15,1.16l1,1.13c-.3.89-.01,1.55.83,2.04l-.4,1.37ZM92.76,61.23l-.19.38.22.08.08-.2-.11-.26ZM103.57,78.32c.77-.32,1.13-.91,1.65-1.47.21-.48.52-.92,1.08-1.08.33-.22.58-.55.75-.88l1.98-1.53,1.68-2.03-.31-.81-.88-.18-.89.95-1.03,1.08c-.19.53-.32,1.15-.38,1.77-.33.28-.67.54-1.09.76l-1.12,1.5-.87-.24.15.9-.72,1.26ZM111.83,70.81l-.22.23.42.39.22-.23-.42-.39ZM112.16,71.49l.2.25.2-.07-.07-.21-.33.03ZM108.84,77.28c.59-.3.64-.32.97-.39l.72.69,1.29-1.32,1.14-.31.94-1.04,1.12-1.26-1.94-.05,1.3-.68c-.16-.41-.57-.55-.98-.58-.2-.26-.38-.44-.76-.43.24.44.5.59,1.04.88l-1.24.96c-.48.05-1.01-.2-1.2-.66l-.72-.84c-.13.22-.09.43.05.59l.24.66-.58.4-.2.57-1.45-.02c-.61.49-.56,1.36-.03,1.75l-.12.72.41.39ZM94.07,72.23l-.12.1-.08.45.27-.21-.07-.34ZM92.15,75.51l.41-.62.19-1.67c-.42-.22-.57-.33-.75-.55-.31.31-.27.79-.02,1.12-.2.38-.28.62-.35,1.09l.49.68.04-.05ZM112.45,77.99l-.18.62-.7.32-.08,1.25c.22.02.45-.05.65-.18.09-.24.1-.26.13-.64l.24-.15.18.49.43-.95c.02.28,0,.43-.05.7l.41-.05.13.27-.38.3.09.43-.54.2.76.03.65-1.07.72.88.36-.4.58.04.12-.29.42.14.37-.49-.21-.7.47.34v.53c.21.02.55-.15.66-.4l.54-.49h-.58s0-.32,0-.32c.6.16,1.03.08,1.3-.3l.5.28.41-.45.66.54c.23-.25.41-.49.55-.73-.28-.54-.76-.65-1.18-.49l-.3.41-.48-.16h-.46s-.2.42-.2.42c-.09-.2-.29-.51-.43-.63l-.12.67-.86-.56c-.11-.45-.46-.99-.84-1.09l-.47.27-.11-.42-.22-.64c-.27-.15-.43-.29-.71-.58l-.58.65.42.61c.02.17.02.47,0,.64-.25.19-.48.31-.74.02-.18.55-.7.91-1.26,1.13l-.07.04ZM102.59,75.96c.07-.45-.17-.79-.56-.47l.56.47ZM101.77,78.4l-.52-.8c-.2-.52-.64-.91-1.12-1.17l-.66-.54-.34-.39c-.13.17-.43.35-.72.42.1.41.13.98-.01,1.45l1.65-.38.88.66.13.72.72.03ZM112.41,77.85l.48-.5-.87.26-.35.24.13.41.53-.41h.08ZM101.99,78.61l-.19-.06-.07.21.2.06.06-.2ZM102.06,79.02v-.21s0,.21,0,.21ZM80.32,79.18l-.07.18.07-.18ZM80.43,79.31l-.08.08.06.08.09-.09-.07-.08ZM80.6,79.38l-.15.16c.17.25.29.46.75.54l-.6-.71ZM84.41,79.85l-.14.12,2.42,2.4c.21-.55-.16-.95-.55-1.22l-.78-.54-.27-.43-.68-.32ZM119.58,80.98v-.87s-.76.03-.76.03l.1.52.24-.15.15-.09-.22.31.49.25ZM111.97,80.36l-.06.06.06.06.06-.06-.06-.06ZM115.27,82.79l-.76-.4-.27.62c-.11.29.19.66.49.8l.9,1.06c.53-.12.8.08,1,.56l.67.02.28-.56c.8-.13,1.54-.61,2.17-1.19l.38-.2-.17-.45c.42,0,.69,0,.95-.17l.05-.68-.53-1.05c-.31.35-.47.52-.74.59-.39-.02-.56-.09-.82-.35l-1.31.15.91.23.33.56.31.5-.93-.4.3.67c-.16.14-.72.19-.73.03l.15-.71-.58-.08-.78,1.5v-.71c-.35-.02-.86-.16-1.27-.35ZM65,81.45l-.1.03.06.27.26-.02-.03-.28h-.2ZM94.26,84.51l.02.3.22.07.18-.54.13-.13.12-.15.19-.18.64-.62c.26-.28.43-.55.42-.82-.14-.42-.34-.65-.68-.72l-.36.66c-.29.22-.52.43-.76.7-.48.24-1.03.61-1.3,1.01l.17.43-.43.1-.57.95-1.21,1.48-.56.91c-.5-.2-.7-.25-1.01-.28l1.25,1.37.62-.63.55-.91c.2-.53.56-.97,1.26-.93l.96-1.34c-.57.12-.59.46-.96.82.03-.47.33-.86.67-1.11l.43-.44ZM85.75,83.14l-.34.52.21.68c-.34.04-.69.14-.97.33l.93-.04.13.34.57.02.02-1.2c-.03-.21-.19-.48-.4-.59l-.3-.6.31-.45-.26-.28-.4.7.24.32-.2.2-.31-.12-.89-.64-.2.04-.37.83.51.25.38-.29.47.37-.6.29.9.07.12-.67.45-.06ZM84.75,84.08c0-.08-.07-.15-.15-.15s-.15.07-.15.15.07.15.15.15.15-.07.15-.15ZM108.29,84.94l.46.31.29-.55-.36.23-.32-.04-.07.06ZM111.41,85.48l.46-.43c-.01-.2-.05-.18-.09,0l-.4.14.03.29ZM94.2,84.99v.08s0,.09,0,.09v.08s0-.08,0-.08v-.17ZM64.78,88.59c-.57-.29-.63-.45-.57-.86-.35-.57-.87-1.09-1.74-1.18l.37.5,1.31,1.4.29.31.34-.17ZM85.87,87.34l-.08.06.08-.06ZM72.25,90.74l.05.78-.58.46c-.32.1-.47.37-.37.67.15.13.52.22.68.2.17-.66.36-1.04.67-1.58.14-.36.31-.7.52-1l.82-.67-.05-.83-.4.55-.79.68-.08.53-.4.13-.07.09ZM60.29,89.08l.07-.06-.07.06ZM60.5,89.14l-.07.06.07-.06ZM60.54,89.37l.31.4.02-.28-.33-.11ZM115.91,91.48l-.33-.72c-.27-.17-.41-.34-.49-.64l.37-.71-.97.66.94,1.43.25.23.23-.25ZM58.1,89.63l.28.29.05-.18-.33-.11ZM60.33,91.7l-1.17-1.51-.35-.29-.34.17c.59.64.91,1.48,1.86,1.62ZM61.09,89.98s.02-.04.04-.08l-.04.08ZM61.22,90.21h.15c-.18-.32-.19-.25-.15,0ZM66.96,90.49l-.39-.26.3.47.1-.21ZM72.24,90.43l-.11.22.11-.22ZM67.05,90.6l-.13.21.52.52c.47.38.67.72.88,1.39l.47-.14-.27-.33c-.01-.29-.1-.57-.36-.74l-.35-.64-.75-.28ZM73.38,95.89l.02-.99,1.26-1.94c.17-.38.4-.62.84-.56l.64-1.11-.65-.57-.26.82-1,1.08.39-1.12c-.93.45-1.26,1.17-1.61,1.97l-.97,1.14,1.35,1.27ZM89.43,91.56l-.06.06.06.06.06-.06-.06-.06ZM88.46,92.04c.42-.03.56-.15.78-.34-.33.05-.6.17-.78.34ZM61.98,93.41c-.34-.66-.76-1.14-1.54-1.64-.06.24.02.56.22.79l1.21.95.11-.11ZM62.02,93.48l-.1.09.39.82.34-.14.12-.12-.75-.66ZM62.82,94.22l-.07.12c.1.52.27,1.16,1.09,1.09-.33-.5-.64-.9-1.02-1.21ZM93.21,94.24l-.09.13.09-.13ZM61.42,96.28l-.61-.63c-.07.31-.05.44.09.58l.51.05ZM67.66,97.93c.02-.45.23-.75.65-.92l.29-.2-.03-.32.99-.2c-.22-.38-.69-.5-1.07-.26l-1.19.87-.67.09.43.22.15.15-.32.18c.07.29.35.45.76.38ZM57.76,98.92l-.88-.98c-.43-.33-.6-.54-1.09-1.05-.06.03-.32.23-.48.38l.3.5,1.1.83c.21.36.52.61.9.53l.15-.21ZM67.67,98.52l.95.18.18-1.36c-.34.19-.4.31-.42.69l-.71.49ZM57.92,109.97l.57.5-.46.35.36.23.24-.28.83-.98.53-.04.12-.37c.36-.19.69-.48.92-.84l.7-1,.55-.36.09.9c.34-.45.43-.73.19-1.12.06-.47.33-1.02.76-1.29l2.14-2.74c.12-.35.27-.65.45-.93.47-.56.56-1.2.06-1.72l-.64.86-.16.17-.22-.34c0,.27-.1.53-.46.63l-.44.7-1.01,1.17-.8.94-.55-.09-.71.6-1.18,1.52.75-.05-1.63,2.23-1,1.34ZM54.6,103.11l.13-.17-.13.17ZM64.59,105.48c.45-.25.76-.69,1.07-1.07.3-.2.49-.44.64-.77l.17-.43-.32-.21-.28.35-.64.77-1.74,2.01c-.18.19-.28.37-.26.65l1.35-1.3ZM54.81,103.09l-.07.15c.17.32.35.62.81.73-.22-.42-.46-.66-.74-.88ZM62.39,103.41l-.06.06.06.06.06-.06-.06-.06ZM62.18,103.79c0-.06-.05-.11-.11-.11s-.11.05-.11.11.05.11.11.11.11-.05.11-.11ZM56.84,105.51c-.36-.68-.7-1.1-1.21-1.41.16.7.62,1.28,1.21,1.41ZM53.28,105.17l1.03,1.37c.39.2.71.48.91.87l1.14,1.1c.12-.57-.14-.7-.4-1.07l-2.1-1.99-.08-.53-.41.13-.09.12ZM59.73,106.76c0-.06-.05-.11-.11-.11s-.11.05-.11.11.05.11.11.11.11-.05.11-.11ZM70.62,109.98l.67-1.32.3-.29-.1-.42c.52-.04.85-.5.73-.86-.75.35-1.2.75-1.48,1.35-.42.45-.63.92-.83,1.6l.73-.06ZM56.2,112.41c.1-.47-.13-.93-.6-1.11l-.91-1.06c-.09.32-.08.55.01.75.36.26.66.63.97.65-.04.28.12.57.53.76ZM57.9,110.42h-.08s.08,0,.08,0h.17s-.08,0-.08,0h-.09ZM57.67,115.86c.49.15.72-.14.89-.5.66-.42,1.09-.92,1.06-1.79l-.48-.06-.19.46c.05.39-.2.69-.57.8l-.37.55c-.21.14-.33.31-.35.54Z"/>
        <path class="cls-1" d="M94.26,84.51l.16-.06-.16.06Z"/>
        <polygon class="cls-1" points="94.89 83.75 94.92 84.05 94.8 84.2 94.67 84.33 94.42 84.44 94.89 83.75"/>
        <path class="cls-1" d="M95.11,83.87l-.22-.13c.07-.17.13-.19.22.13Z"/>
        <polygon class="cls-1" points="66.86 80.25 66.67 80.17 66.71 80.02 66.83 80.02 66.86 80.25"/>
        <path class="cls-1" d="M96.89,51.56l-.25-.76.38-.17-.46-.2c.49-.19.6-.4.64-.85l-.11-.47-.41.09-1.02-.99c-.39-.02-.62-.24-.78-.53l-.17-.5.34-.4.23-.28-.42-.11-.8-1.1-.25-.29.16-.44.2-.34-.35-.27-.26.9c-.29-.48-.55-.69-1.07-.63-.04.49.15.88.78,1.19l-.44.39.63,1.09.35.13-.05.39.78,1.13c.15.31.33.58.55.84l.17.15-.04.22-.42-.2.08.42-.88-.4-.38-1.06c-.34-.11-.73-.13-1.06-.01l-.63-.51c.1.62.51.74,1.06.69l-.2.66-.14-.28-.17.11.04.26c.06.25.08.52-.05.74l-.7-.1-.12.15-.24-.06.24-.25-.33-.27-.62.14-.4-.52-.58-.31-.1-.11.12-.13.12.15.24-.23-.91-.39c-.31.17-.58.33-.79.5l.83,1.21-.11.39-.31-.13-.9.52-.25-.44.43-.26c-.41-.19-.92.41-.77.78.53.1.92.22,1.51.48-.14.32-.58.71-.84.71l-1.41-.51-.29.38-.36-.04-.55-.71-.43.18-.24-.21.36-.61-.7.15.16-1.8-.53.37.05-.89c-.43.27-.78.36-1.1.29l.31-1.29.21-1.33c-.49.33-.7.65-.89,1.12l-.84.93-.97.97-.14-.42-.23-.09-.94,1.24c.08.36.02.67-.17.98l-1.89,2-.2.53.25.32-.29.55-.58-.12c-.75.4-1.27,1.22-1.46,2.07l-.41.22-.29-.24-1.98-1.37c-.98-.7-1.85-1.49-2.58-2.44-.34-.12-.67-.29-.91-.46l-.11-.17-.18.21-.13-.72-1.77-1.68-.76-.65-1.15-1.05-1.05-.62-.89-.64-.26-.61h-.65s-.58-.14-.58-.14c.18-.46.33-.61.71-.7l1.4-1.7.13-.92.81-.41.94-1.15,1.45-1.62,1.7-2.03.41-.38.51.25c.36.5.97.7,1.56.88.21.32.48.56.83.7l1.78,1.5c.39.16.77.46.92.93l-1.36,1.2-.86,1.28-1.59-1.24-.22,1.1.51.42-.93.33c.67.49.68,1.1.4,1.64l-.15-.37-.27,1.78,1.6,1.37.42-.71c.45.35.65.55.96.94l.89-.31-.1.47h-.47c.28.2.51.4.72.64.61-.37,1.11-.89,1.03-1.62l.47-.47.71.6c.01.35-.02.54-.12,1.08l.8.64.64-.46-.27-.11-.13-.37.68.17.16-.2.03-.25.43.18,2.41-2.81-.55-.53-.02-.03-.68-.48.23-.27.58.6.06.02c.47,0,.8-.24.95-.76.11-.31.06-.53-.13-.91l1.16.48c-.63-.83-1.53-1.31-2.35-1.93l-2.21-1.8-3.12-2.44.58-.54-.7-.27.46-.31-.28-.45c-.39-.1-.52-.18-.7-.55l.94.25.9.37,1.07.84.08-.3-.4-.14-.07-.35-.51-.21.27-.2.42.2c.44.2.84.42,1.15.78l1.44,1.04.45.94.81.56.16-.05-.27-.5.71.38.78.64c.49.44.54.85.27,1.54.11.16-.25.24-.49.22l-.44-.43-.44-.55-.14.35-.33-.06.08.37.53.06.09.9c.68.32,1.25.62,1.38,1.41l.59-.58-.83-1.59,1.45.95,2.26-2.89-1.83.45-1.59-1.22-.09-.36h-.31c-.38-.46-.82-.81-1.35-1.09l-2.71-2.09-.35.51.07-.75-2.24-1.59c-.46-.55-1.06-.97-1.76-1.18l-1.19-.61-.07-.7-1.67-1.32-.92-.51c-.35-.11-.62-.33-.69-.72l-1.13-.97-.56-.11-.12-.4-.58-.23-.31.85c-.37.56-1.33.72-1.91.32-.05-.36-.21-.58-.56-.62l-.38-.62-.88.68-.35.71-.99,1.21-.28-.36-.16.18.17.4c-.38.02-.68.17-.85.51l-.72.32c-.02.56-.35,1.25-.91,1.14l-.13.13.7.33-2.69,3.24c-.3-.05-.46.02-.7.25-.15.22-.17.43-.15.78-.53.03-.95.37-1.01,1l-.34-.12-.1-.33c-.19-.15-.36-.32-.44-.47l-.79-1.26c-.5.23-.76.62-.87,1.12-.16.57-.5.89-1.09.95l-1.33,1.41-2.3,2.73c-.08.33-.23.6-.47.81-.15.39-.37.66-.8.75-.28.48-.68.85-1.21.96l-.5,1.17-.08.32-.33-.06c-.23.51-.55.95-1.01,1.3-.08.69-.53,1.25-1.38,1.14l.32.52c-.41.22-.76.59-1.02.99l.24.46-.4.38-.53-.37c.13-.05-.07.03-.17.07l.2.27c-.26.05-.64-.06-.95-.24l-.28.22v.24s.54.05.54.05c-.42.35-.66.55-.79,1.08-.05.28-.26.5-.52.62-.3.6-.68,1.18-1.18,1.64l-1.18,1.41-2.24,2.64-1.91,2.34c.07.65-.28,1-.79,1.29l-.81.37c-.29-.08-.53-.26-.76-.57l-1.04.84.26-.81-.44-.53.35-.22-.11-.55.41-.5c-.48-.07-.81.21-.94.67-.31.18-.5.42-.4.78l-.97.84-2.67,3.11c-.11.3-.32.54-.57.7l-.79.93c-.21.17-.49.29-.76.35.13-.25.2-.57.2-.78l-.25-.67.05-.28.58-.12-.28-1.08.35-.4-.25-.54c.35-.15.69-.42.86-.79l2.29-2.74,1.8-1.94.19-.24-.19-.28-.55.08.68-.74.43-.66.37-.03.02.18-.29.34c.44-.1.85-.41,1.14-.82l.8-1.17c.02-.27.21-.47.5-.5l.82-1.13c.02-.4.26-.64.64-.76.28-.15.46-.51.34-.75l-.09-.45.45-.14v-.03s.52-1.16.52-1.16l.54-.21.11.59.23-.8c.55-.78,1.41-1.39,2.25-1.84l.39-.86.32.23.35-.34c-.14-.51.15-1.04.78-1.07l.9-1.04.61-.52c.14-.32.4-.57.68-.75l.42-.62c.82-.61,1.43-1.3,2.02-2.1l2.29-2.46.84-.77c.11-.16.24-.52.27-.72l-.69-.27c-.23.07-.66.47-.91.77-.32.22-.55.48-.68.83l-.17.33-.3-.23-.76.82v.41c-.13.08-.15.1-.37-.07-.28.14-.52.51-.55.94l-2.56,2.74c-.22.38-.5.69-.83,1l-.57.55c-.1.2-.26.36-.52.56-.1.15-.24.36-.45.18l-.13.65c-.28.03-.57.27-.69.57l-1.34,1.66-.26-.25-.37.25-1.16,1.53c-.54.39-.95.85-1.34,1.37l-.64.77-.81.76c-.14.21-.34.31-.71.39.08-.52.26-.78.64-1.19.13-.2.01-.34-.29-.16.3-.79.84-1.51,1.61-2.04l.39-.46-.2.48c-.04.14.02.24.38.46l2.6-3.26c.26-.22.4-.59.46-.97.48-.16.93-.41.96-.91l1.24-1.69-.25-.44.22-.29c.4.1.63.03.84-.18l.3-.31.48.25c.16-.53.32-.95.59-1.42l.55-.65c.26-.26.51-.42.93-.49.11-.5.34-1.13.93-1.26l2.35-2.78.36-.15-.3-.43.67-.17.23-.55.82-.46c.25-.11.68.07.96.32l.38-.02.1-.4h-.52c-.36-.43-1.03-.82-1.64-.85l-.76.59-.92.48-2.29,2.74-1.34,1.49-1.56,1.51c-.13.52-.4.85-.75,1.18l-1.56,1.79-.73.95-1.03,1.18-2.22,2.66-.69.85-.82.96-1.8,1.96c-.23.2-.41.45-.55.72l-1.14,1.3-.45.31.03.57c-.59.37-1.18.72-1.18,1.54l-.56.41-.33.03.04.2.22.08c-.47.26-.84.52-1.1.85l.31.34-.21.28-.67.84h.7c.3-.45.43-.69.93-.98l-.82,1.24.2.2-.11.39c-.09.66-.38,1.13-.93,1.53l-.12.33-.3-.02.28-.72.17-.26-.22-.22-.26.18-1.75,1.67-.04-.49-.68.52.35.39-.18.62.58.14-.75.74-.2.29.4.24c-.25.3-.57.57-.99.77-.29.31-.56.68-.76,1.05.08.54-.4,1.04-1,.97l.3-.25-.15-.35-.57-.49c-.28.05-.55.16-.76.36l-.4.26.26-.52,1-1.19c.25-.76.24-1.43-.51-1.86-.14-.33-.05-.73.19-1.04.53-.79,1.07-1.47,1.78-2.1.41-.38.75-.8,1-1.32l1.94-2.05,1.24-1.34,1.64-1.97c.36-.25.59-.63.76-1.04l1.44-1.39,1.56-2.03,1.46-1.64,3.38-4.22,4.94-5.87.64-.29c.01-.44.22-.83.72-.99l.04-.31.5-.18c.05-.53.28-1.04.77-1.36l1.39-1.71c.32-.44.72-.82,1.15-1.16l1.33-1.76.78-.62c.37.09.66.2.99.39.25.51.61.78,1.11.96l.63.78,1.06,1.01c.32.26.58.54.76.96.48.09,1.03-.32,1.11-.89l1.33-1.53c.76-1,1.54-1.92,2.42-2.83l2.89-3.88.21-.17v-.37s.36-.07.36-.07l.14-.44.76-.9.97-.83c.31-.61.65-1.22,1.07-1.74.69-.65,1.25-1.33,1.83-2.05.25-.21.41-.39.62-.7l.45-.21.79-.96c.32-.17.47-.28.77-.58.4-.07,1.03,0,1.43.14.29.58.69.87,1.28.97l1.62,1.23,2.2,1.79,5.91,4.26,2.95,2.18,1.01,1.05c.43.22.75.51,1.07.86l1.25.65.13.4.39-.02,2.42,1.75,1.78,1.18,3.7,2.36c.09.42.29.62.74.7l.26.97c.49.13.76.46.64.94l1.2,2.14c.16.41.4.77.67,1.12.09.6.28,1.18.69,1.62.59.25.88.82,1,1.36l.21.39c-.39.39-.5.87-.41,1.26l.65.47c-.06.32-.13.58-.24.84l-1.06,1.18c-.27.28-.57.72-.68,1.02l1.03,1.25c.43.64.66,1.25.67,2.07l-.93,1.29-.34.16ZM65.12,15.56l-.03-.33-.85.4.88-.07ZM69.73,16.87l-.06.06.06.08.06-.08-.06-.06ZM69.21,17.77l.52-.15v-.55s-.52.7-.52.7ZM69.98,17.13v.08s0,.09,0,.09v.08s0-.08,0-.08v-.09s0-.08,0-.08ZM63.25,19.84c.25.25.31.42.43.77l1.07-.31-.08-.46.27-.31.22-.63h.49s.14-1.02.14-1.02l-1.48.37-.3,1.01-.38-.02-.42.41.23-.99-.46.54c.05.22.14.45.27.65ZM64.87,23.67c.39-.08.74-.28.8-.73.26-.4.59-.66.94-.75.01-.35.28-.77.54-1.01l.35.78.67-.02.95.85c.2-.24.28-.42.33-.68l-.26-.45c-.37.24-.42.23-.66.21l-.51-.41-.5-.73-.66-.46-.49.16-.4-.61-.6.87-1.25,1.23-1.1,1.43c-.14.73-.74,1.01-1.57.82.21.48.65.64,1.22.74l.52,1.03.41-.02-.19.33.28.14.07-.36c.32-.11.68-.48.77-.8-.57-.29-.86-.59-.6-1.19l.14.75.8-1.1ZM63.07,20.7l-.46-.18-.16.57.62-.39ZM60.11,23.37l.77-.26.28-.39-.13-.36.66-1.04-.32-.15-.23.22h-.87c-.2.45-.48.67-1.11.57l.07.55.77.05.12.8ZM62.38,21.93l.2-.24-.06-.19-.16.05-.14.43.16-.05ZM70.69,24.77l.69.39.21.17.13-.31c-.32-.34-.31-.74-.14-1.09-.51-.26-.95-.57-1.41-1.04l-1.08-.05,1.09.98.35-.03.12.57c-.38.13-.83.03-1.41-.13,0,.13.28.38.39.32l1.06.22ZM69.13,24.16c-.36-.27-.78-.2-1.02.18l.63-.15.39-.03ZM65.86,26.05l.41-.34c.38-.45.69-.7,1.25-1.03l-.33-.34-.38.19c-.25-.09-.56-.03-.63.31l-.77.38s-.07.25-.12.47l.4.04.32-.11-.02.12-.13.31ZM56.15,27.89l.34.32.42-.27.97-.83,1.39-1.38c-.96.19-1.52.86-2.05,1.64l-.28-.42c-.23.5-.37.73-.69.89l-.09.05ZM74.36,26.19l-.26-.24v.23s.1.02.1.02h.16ZM74.41,26.2l-.09.14-.17.44c.52.32.94.65,1.08,1.17l.31-.3.34.2-.4.85.59-.38.48.25.98-.06-.78-.58-1.13-.93c-.16-.18-.36-.33-.57-.45l-.63-.36ZM52.7,32.6l.5.52c.28-.15.41-.54.33-.91l1.41-1.24c.66-.14,1.12-.52,1.42-1.14.27-.3.62-.49.97-.58.18-.26.41-.52.67-.74l1.1-1.15c-.1-.3,0-.48.23-.65l-.24-.25-1.19,1.46c-.25.34-.64.59-1.04.75l-.74.81c-.35.44-1.03.56-1.47.07l-.72-.04-.09.7,1.47.25-.9.09-.27.57c-.09.26-.26.42-.62.35l-.82,1.15ZM55.93,27.78l.17-.09-.17.09ZM86.41,35.8l1.36.73c.25.07.46.11.65.1l.15-.58c-.66-.02-1.13-.02-1.23-.52-.47-.2-.95-.55-1.3-1.04l-1.92-1.3c-.68-.34-1.29-.75-1.84-1.24l-1.24-.94-.42-.18-.05-.39-.38.06-.28-.28-1.18-.58-.42.66,1.31.48-.3.45.7.42.66-.04.23.57.89.04.23.75.71-.05.32.43c.36.16.66.34.94.61.31.32.62.48,1.1.61l.29.69c.41-.11.9.09,1.02.56ZM78.3,30.31l-.28-.41-.54.17.82.24ZM58.68,31.37c.16.28.17.23.13-.02l-.13.02ZM67.12,40.44l.69-.45c.29-.69.88-1,1.5-1.28-.45-.4-.49-.67-.28-1.31l-.61.33-2.03,2.5c-.35.44-.38.95-.17,1.49.04.24.16.48.33.53-.07-.59-.03-.88.39-1.23l.26-.3-.07-.3ZM36.65,49.52l-.12.54-2.95,3.49c-.14.28-.33.51-.59.69l-2.43,2.9.17.07.59-.54c.41.29.63.44,1.01.61l2.99-3.55,2.73-3.21c.72-.98,1.48-1.9,2.34-2.8.21-.46.52-.84.97-1.07l1.81-1.95c-.21-.42-.09-.76.17-1.09l.25.61,1.08-1.22.96-1.1,1-1.28.77-.66-1.21-1.06-.24-.21-.18.27c-.12-.1-.35-.11-.72-.06l-1.99,2.24c-.27.16-.5.35-.72.59l-.47.3-1.46,1.72c-.28,0-.48.17-.54.42-.63.48-1.25.97-1.68,1.75.57-.24.77-.82,1.32-1,1.02-.69,1.87-1.7,2.66-2.71l1.19-1.01.85-.95c.39-.35.77-.72,1.31-.93l-6.52,7.83c-.15.34-.34.53-.63.77-.26.27-.56.49-.87.66l-.85.97ZM64.87,46.1l.7-.64c.19-.42.48-.75.97-.8l-.04-.46.34-.32-.15-.45.39.05.03-.56.32.03.24.46,1.32-1.74,1.04-1.32.93.37c-.47-.66-.93-.93-1.62-1.4l-1.24,1.5-.65.87-1.79,1.97c-.31.34-.54.52-1.06.73l.21-.73.03-.65.67-.21c.09-.27.14-.65.12-1.1-.32.07-.43.25-.56.57l-.45.2-.02.59-.31-.12-.19.19-1.26,1.58,1.38.78c.04.43.24.67.56.79l.07-.17ZM67.65,45.75c.19-.38.44-.47.81-.47.34-.56.58-1.14.46-1.81l.94-.94c.12-.15.24-.41.29-.64l.16-.23-.23-.2-.29.14-1.64,1.95-1.29,1.11.05.39-.23.22-.65.9c.16-.02.43-.07.6-.12l1.02-.31ZM92.38,46.33c.05-.53.05-.49.15-.73l-1.26-2.03.63-.13.03-.38-.77-.05.12.31-.26.25-.13.49.27.36.88,1.17c-.02.33.16.74.33.74ZM38.08,45.84l-.55.53.17.18.55-.53-.17-.18ZM64.92,46.38l.1-.17-.1.17ZM91.44,47.45l.08-.24-.31.08-1.09-.72c.18.59.74.97,1.22.99l.1-.11ZM91.5,47.51l-.11.09.1.31.48-.03-.47-.36ZM72.44,48.55v.08s0,.09,0,.09v.08s0-.08,0-.08v-.17ZM32.75,50.52s.32.02.51.02c.76-.1,1.39-.27,1.83-.91.34-.14.54-.46.39-.81l-1.03.72c-.28.12-.43.25-.54.67l-1.1.23-.06.09ZM78.08,49.09l.07-.21-.07.21ZM31.15,49.21l.29.34.13-.15.06-.2h-.48ZM31.03,49.64l-.09-.14-.25.09v.12s.27,0,.27,0l.07-.07ZM31.11,49.69l-.1.08-.09.46.38-.35-.2-.18ZM79,49.96l-.06.06.06.06.06-.06-.06-.06ZM78.34,50.09v.4s.37-.05.37-.05l.15-.29-.52-.06ZM30.67,56.19c.57-.32.79-.71.92-1.12l-.36-.05v.46c-.39.19-.54.34-.55.71ZM30.11,56.65l.42-.04-.06-.5-.36.54ZM30.18,56.92c-.05-.1-.34-.08-.38.01l-1.33,1.44c.69-.33,1.16-.71,1.71-1.45Z"/>
        <polygon class="cls-1" points="10.2 77.38 9.89 77.58 9.48 77.23 9.38 76.42 10.61 76.69 9.8 76.84 10.13 77.15 10.2 77.38"/>
        <path class="cls-1" d="M25.9,96.15l-.7.67-.8.46c-.35.43-.92.35-1.31.03-.69-.45-1.19-1.1-1.45-1.89-.15-.68-.2-1.32-.19-2.01-.55-.84-.96-1.77-1.28-2.73-.68-.64-1.22-1.36-1.4-2.3l-1.11-1.74c-.86-.89-1.58-1.86-2.26-2.89l-.84-.97c-.47-.34-.92-.7-1.25-1.18l-2.33-1.83c-.24-.4-.38-.94-.46-1.43l-.5-.74.18-.23c.24-.2.53-.3.89-.29l.33-.05.07-.29.54.37.25.26.25-.25,1.32.03,1.19.47-.62.31c.53.22.9-.24,1.12-.47l-1.91-.61.38-.16-.28-.57.53-.35v-.58s-.54-.24-.54-.24c-.42-.14-1.04.03-1.09.44l.15,1.16-.75.06-.17-.61-.54-.13-2.29.14c-1.28-.2-2.25-1.38-2.21-2.74.28-1,1.05-1.55,1.97-1.93l2.31-.36c.8-.66,1.54-1.48,2.19-2.31l2.18-2.32.4.31-.39.32-.81.56-.24.96-.24.58-.58.02-1.49,1.8,1.74.04c.31.21.63.24.94.11l-.42-.34.32-.74c.05-.45.36-.74.83-.87v-.29s.29-.22.29-.22l1.19-.88c.33-.37.7-.66,1.16-.87l.33-.15.3.47c.21-.13.5-.47.65-.74l-.11-.18h.1s.1.08.1.08c.29-.12.43-.35.44-.84l.47-.13-.13.67.74-.22c.12-.03.34.04.55.22l-.27.4c-.35.25-.65.57-.93.99l-.73.55-.39.3-.35-.25c-.39.4-.55.49-1.15.47l.73.44.2-.42.2.19-.16.31-.83-.1-.77.57c.04.43-.24.77-.68.83l-.41.32.08.46,1.51-.25-.3.84c.81-.07,1.5-.32,1.88-1.13l-.62-.22c.48-.59,1.4-.85,2.2-.63l-.33.92-1.27.84c.02.32.14.61.32.94.16.3.41.58.64.61l-.46-1.07.04-.36.32.09.22.29.37-.1-.25.61.79.18.33.25.24-.37.32-.52c.28.56.34.6.65.57.36-.11.46-.3.46-.67l.73-.66,1.04-1.23c-.51-.31-1.08-.75-1.44-1.34l.73.07c.17.07.42.33.59.58.34-.6.83-1.21,1.36-1.63.4-.12.67-.32.9-.65.24-.35.64-.63,1.01-.78l.42-1.65,1.2-.31-.44-.51.46-.27.63-.3.15.67.62-.2-.14-.46.44-.39c.12.31.25.6.41.84l.9.02c.14.38-.02.96-.4,1.27-.25.46-.57.79-1.06.99l-1.86,2.27-.8.72c-.28.47-.66.94-1.1,1.26-.79-.17-1.27.05-1.79.63l.67.29c-.2.39-.35.76-.46,1.29-.22.29-.63.63-.98.88l-1.14,1.32.63.26-.2.42.88.98.88.8.36-.49c.41-.17.61-.32.89-.58.52-.82,1.26-1.41,2.04-1.94l.74-1.42c.56-.16.92-.34,1.28-.66.07-.33.35-.47.62-.46l.19-.51.63-.07.72.08.26.53c.12.29.21.59.26.9.44.35.98.86,1.3,1.29-.04.4-.04.67,0,.96.77.46,1.39.92,2,1.5l.31.44.61-.16.57.56-.37,2.04-1.27,1.23.07.45-.43.11-1.01.11c-.77.12-1.46.19-2.24.17l-.33.09v.3s.34.06.34.06l1.41-.06,1.17-.03-.87.86.59.28-.54.18-.19.39-.57.14-.1.35.32.57-.22.31-.64-.25-.28.52-.86,1.06c-.08.45-.28.74-.62,1.04-.18.26-.39.38-.74.29l-.7.73c.02.56-.49.82-.92.94l-.04.87c-.73.4-.82,1.18-.6,1.77.31.09.52.19.69.31l.99.49-1.16.92-.33.55c-.77.47-1.75.14-2.05-.73l-.53.31-.43-.24c-.16.43-.41.9-.69,1.28l.04.93.16.8ZM10.17,72.75v.23s-.19.2-.19.2l-.29-.35-1.52,1.07,1.25.27.7-.04c-.19-.24-.11-.86.34-.96l.34-.41.87.3.05.15-.27.06c-.39.08-.77.32-.87.74.71.37,1.41.35,2.16.17.79-.15,1.47.01,2.06.51l.77.55-.36.6.56-.11-.42.91.33-.25.24.07-.08.33.56.33.76-.59-.72-.67-.47-.94.63-.69-.43.14-.16-.25-.43-.16.03-.47.72.18c.48-.09.96-.14,1.59-.13l.52-.32-.42-.57c-.46-.05-.98.06-1.45.36l-2.44-.36c-.53-.26-1.03-.4-1.6-.49-.49-.25-1.03-.25-1.46.09-.25-.27-.55-.28-.86-.12l-.45.18.06.4.33.04ZM20.22,76.88l.74.29c.19.13.35.2.55.26l.42-.51-.44-.41c-.2-.11-.37-.27-.42-.42l.33-.45-.36-.26.06-.34-.28-.17-.32-1.14c-.08.66-.16.95-.53,1.36-.19.32-.39.48-.83.64v.68s-.18.39-.18.39l.36.22c-.08.45.22.87.56.95l.03-.36.23-.09.1-.63ZM22.23,76.58c.33-.48.49-.87.59-1.31l-.35.05-.07-.4-1.32-.82c.09.62.32,1.07.61,1.41l.77.27-.52.09.29.72ZM30.99,76.65l-.82-.12-.48-.26-.37.3.65.07.17.34-.24.08.08.34-.39.24.43.19-.2.2-.14.53-.47.1-.61.78c-.14.22-.36.52-.42.59l.28.88.7.24.04.57.86.38c.55.41,1.36.39,1.85-.07l.58-.62.15.37.17-.18c.01-.47.4-.83.8-1-.29-.18-.47-.34-.62-.52l-.52-.94-.38-.44-.59.09-.64-.6-.6-1.07c.58.23.85.55,1.23,1.26l.34-.85.19-.83c.48-.3.55-1,.28-1.39l-.44-.19.25-.25-.07-.25-.86.85-.15.07-.02,1.1ZM31.09,75.34l-.17.07.17-.07ZM18.42,79.77c-.09-.36-.45-.62-.9-.58.03.13.07.28.06.24l.15.05c.22.19.39.31.57.39l.12-.09ZM18.86,80.02l-.13-.26-.24.05-.07.1.07.2h.24s.12-.1.12-.1ZM18.8,80.16l-.21.25.16.35c.1.49.31.93.64,1.3.36.28.33.57.21.98l.22-.24.17.05.03.28c.76.33,1.27.99,1.6,1.72l.46.46c.6.56,1.12,1.2,1.56,1.94.47.09.95.34.78.94l1.34,1.14-.65-1.09.58-.32.52.34c.16.3.61.42.84.27l-.63-.62-1.57-1.9-.6-.83-.47-.56-1.39-1.93-.6-.82-.23-.2-.21.24-.7-.5-.08.32c.04.08,0,.01-.07-.13-.44-.61-1-1.21-1.55-1.64l-.16.2ZM31.11,83.19c.51-.03.93-.12.98-.66l-1.32.08c-.89-.03-1.73.1-2.53.5-.56.17-1.11.31-1.58.57l4.45-.49ZM25.29,83.82l-.36-.18.1-.4c-.47-.1-.81-.18-1.42-.02l.99,1.07.7-.48Z"/>
        <path class="cls-4" d="M107.42,102.29c-.4.73-1.51.77-2.18.2l.13-1.41-.32-1.54,1.42.17c-.27-.6-.77-.77-1.26-.78l.09-.19h.27s.68.2.68.2l.22-.67-.92-.41-.7-.17c-.29,0-.58-.06-.81-.16.35-.76-.03-1.23-.68-1.64l-.15.49-.44.1.27.29-.21.12h-.11s-.59.97-.59.97l.18.16.26-.22.22-.23.03.16.04.12.53-.05.32.39.32.39c-.59-.2-1.18-.32-1.88-.41-.28-.04-.46-.21-.62-.56-.26.07-.62.32-.82.61l-2.2,2.95-1.67,1.94c-.32.32-.65.51-1.11.56-.78-.4-1.39-.82-2.01-1.39-.48-.57-1.23-.73-1.94-.76-.42-.35-.85-.63-1.36-.84l-.93-.58-.17-.49.9-1.81,1.7-2.29c.39-.09.71-.26,1.02-.5l.41-.16-.15-.41-.06-.07.09-.13.09.19.74.55.91-.28.29.1.09-.23-.29-.07-.41-.05.09-.42c.2-.22.26-.76.13-.9l-.76-.19-.07-.67.36-.57.53.15,1.01-.07.44.54.41-.45-.02-.56.48-.11,1.29-1.48-.94-1.16,1.92-1.94c.28-.04.44-.23.48-.59l.65-.34-.08.86.89-.39c.03-.39.14-.6.47-.79.1-.44.07-.91-.05-1.46l1.86-1.96c.19-.32.46-.55.66-.54.41.25.43.28.75.66.24-.22.56-.71.74-1.07l.61.61.55.59.85-.17,1.08-.36c-.77-.25-1.07-.38-1.5-.92l-.27-.16-.02.17.11.19.18.35-.4.04-.02-.27c-.18-.33-.46-.68-.75-.9l-.69-.48.45-.48.62.42c.14.43.43.68.89.36l.84,1.1.58-.04.09-.05.36-.6.52.71.31.78-.86-.06c.41.37.69.26,1.15.37-.69.11-1.1.4-1.36,1.1.54.89,1.13,1.63,1.94,2.35.36.02.72-.12.94-.39l.24-.14.22.25v-.39s-.55-.2-.55-.2l.54-.67-.98-.43-.36-.42c-.27-.13-.45-.44-.45-.67l.64-.06.23-.63.66-.1-.04-.44.5-.05.91,1.01c-.36.05-.35.05-.8-.08l-.69.69c.58.31.84.49,1.25.81.26-.12.53-.13.95.06l-.67.58c-.03-.07.07.2.09.24l.31.04.27-.38-.05.94.3-.38-.03.95-.74-.29.49.44c.28.14.58.49.64.68l.68-.34-.07-.5.36.18-.13.29.08.36.45-.05c-.23.54-.74.97-1.27.89.09.3.04.6-.12.77l-1.07.9-1.19-.8-.92-.89-1.33-1.15.49-.47-.43-.33-1.34-1.35-.55-.49-.67.34.42.25-.04.53.07.1.32.04.36-.23-.29.55-.46-.31-.08-.07c.09.5-.06,1.04-.66,1.13l-.36-.52c-.17.45-.03.83.33,1.21.16.2.36.27.59.13.15-.15.15-.36-.01-.55-.02-.53.42-.73.97-.72.83.59,1.57,1.3,2.24,2.07l1.98,1.76.84.52-.78.73-.2-.21c-.13.42-.22.66-.4,1-.45-.13-.66.05-.91.39-.19.62-.67,1.02-1.34,1.12l-.5.6.51,1.28-.45.97c-.31.16-.53.34-.71.59-.49.27-.79.64-.9,1.2l-.47,1.57c-.47.25-.91.56-.76,1.25-.29.34-.43.44-.97.79.21.22.57.5.86.69l-.06.4.36.05ZM109.16,81.13l-.13.05.09.4.19-.14v-.24s-.16-.07-.16-.07ZM106.12,87.55l.09-.08-.09.08ZM106.14,87.63l.81,1.02.24.63c.43.14.61.3.83.67.37.06.75-.18.83-.77l-.9.02.04-.17.35-.16-1.12-.96-.35-.47-.54.17-.19.02ZM108.78,87.97l-.05.12.05-.12ZM108.93,88.07l-.14.1.48.85c.05-.43-.11-.78-.34-.95ZM106.25,88.86c-.08-.04-.33-.11-.52-.15l.44.28.08-.14ZM106.36,88.93l-.13.19.44.68c.03.3.08.48.19.73l1.41,1.17.21-.25.19.13.37.21.15-.42-.43-.1-2.41-2.33ZM98.74,97.3c.87.37,1.07.28,1.72-.14.1-.19.15-.44.17-.77l-.55-.19-.67,1.08-.29-.51-.49.12c.04.15.12.42.12.41Z"/>
        <path class="cls-4" d="M85.75,103.97l-4.45-3.7c-.51-.42-.89-.69-1.58-.9-.19.45-.27.76-.35,1.19.21.72-.18,1.2-.65,1.55l-.62-.45c-.33-.23-.6-.55-.73-.89.36-.53.09-.86-.33-1.14-.63-.24-1.05-.82-.93-1.44h.36s.1-.51.1-.51c.48-.42.89-.99.7-1.55-.29-.23.07-.77.4-.99l.21.52.3-.48.54.04.99.86,1.09-1.18.1-.65-1.05.27c-.31-.29-.69-.34-1.04-.14-.92.2-1.56.73-2.4,1.37.27-.9,1.32-1.16,2.07-1.59.67-.36,1.31-.45,2.06-.38l.96.22-.03-1.3c-.24-.29-.3-.36-.35-.86l-.58-.29-.72.55-.32-.82-.57-.36.77-.05,1.18-1.15c.16-.49.51-.87,1-1.07l.92-.41.26-1c.25-.03.49-.19.57-.42l.53-.68.85.28.25.41c.28.12.46.22.54.33l.08.16-.08.06-.14-.13c-.29.05-.51.37-.61.74l-1,1.86.83-.39v1.06s1.7,1.65,1.7,1.65l1.37-.25.1.27.52-.02-.53.78c.79-.2,1.45-.5,2.23-.9l.97.38-1.31,2.17c.01.36.09.6.36,1.03,0,.26-.17.69-.34.99l-.55,1c-.08.24-.18.45-.34.62l-.69-.26.04.97-.26.25v.35s-.26.19-.26.19l-.1.73-.78.15.03.64-.56.1.43.25-.18.33-.28-.22c-.05.36-.13.59-.37.79l-.41.91.07.53ZM86.36,92.58l-.58-.65-.31.32-.24-.23.33-.24-1.17-1.04-.73.7.97.73,1.53,1.3.2-.89ZM79.08,98.29l-.85-.76-.34.7.19.66.51.07.36-.6.12-.07ZM79.16,98.36l-.14.12.07.47.81.08-.21-.54-.53-.12Z"/>
        <path class="cls-4" d="M21.95,65.22c-.48,0-1.04.03-1.49.14l-.47.13c0,.48-.14.72-.44.84l-.1.1c-.16.27-.44.61-.65.74l-.3-.47-.33.15c-.47.21-.83.5-1.16.87l-1.19.88-.3.22v.29c-.46.12-.77.42-.81.87l-.5.32.18.42.42.34c-.31.12-.64.1-.94-.11l-1.74-.04,1.49-1.8.58-.02.24-.58.24-.96.81-.56.39-.32-.4-.31c.17-.15.35-.29.52-.39l.4-.26c.21-.2.48-.31.76-.36l.57.49.15.35-.3.25c.6.06,1.08-.44,1-.97.2-.37.47-.74.76-1.05.42-.2.73-.47.99-.77l-.4-.24.2-.29.75-.74-.58-.14.18-.62-.35-.39.68-.52.04.49,1.75-1.67.26-.18.22.22-.17.26-.28.72.3.02.12-.33c.55-.39.84-.87.93-1.53l.11-.39-.2-.2.82-1.24c-.5.29-.63.54-.93,1h-.7s.67-.85.67-.85l.21-.28-.31-.34c.26-.33.62-.59,1.1-.85l-.22-.08-.04-.2.33-.03.56-.41c0-.82.59-1.17,1.18-1.54l-.03-.57.45-.31,1.14-1.3c.14-.26.32-.52.55-.72l1.8-1.96.82-.96.69-.85,2.22-2.66,1.03-1.18.73-.95,1.56-1.79c.35-.34.62-.67.75-1.18l1.56-1.51,1.34-1.49,2.29-2.74.92-.48.76-.59c.62.03,1.28.42,1.64.84h.52s-.1.4-.1.4l-.38.02c-.27-.25-.71-.43-.96-.32l-.82.46-.23.55-.67.17.3.43-.36.15-2.35,2.78c-.6.13-.83.76-.93,1.26-.42.07-.66.23-.93.49l-.55.65c-.27.46-.44.88-.59,1.42l-.48-.25-.3.31c-.21.21-.45.27-.84.18l-.22.29.25.44-1.24,1.69c-.03.5-.48.75-.96.91-.06.38-.2.75-.46.97l-2.6,3.26c-.36-.22-.42-.31-.38-.46l.2-.48-.39.46c-.77.52-1.31,1.25-1.61,2.04.3-.17.42-.04.29.16-.38.4-.56.67-.64,1.19.38-.07.57-.17.71-.39l.81-.76.64-.77c.38-.52.8-.98,1.34-1.37l1.16-1.53.37-.25.26.25,1.34-1.66c.13-.31.41-.54.69-.57l.13-.65c.22.19.35-.03.45-.18.26-.2.42-.36.52-.56l.57-.55c.32-.31.61-.61.83-1l2.56-2.74c.03-.43.27-.79.55-.94.22.17.24.15.38.07v-.41s.75-.82.75-.82l.3.23.17-.33c.13-.35.36-.61.68-.83.24-.3.68-.7.91-.77l.69.27c-.03.2-.16.56-.27.72l-.84.77-2.29,2.46c-.59.8-1.2,1.49-2.02,2.1l-.42.62c-.28.17-.54.43-.68.75l-.61.52-.9,1.04c-.64.03-.92.56-.78,1.07l-.35.34-.32-.23-.39.86c-.84.45-1.7,1.06-2.25,1.84l-.23.8-.11-.59-.54.21-.51,1.16.2.19,1.1-.23c.11-.42.26-.55.54-.67l1.03-.72c.15.35-.05.67-.39.81-.43.63-1.06.81-1.83.91-.19,0-.52,0-.51-.02l-.14-.24-.45.14.09.45c.12.24-.06.6-.34.75-.38.12-.61.36-.64.76l-.82,1.13c-.29.04-.48.23-.5.5l-.8,1.17c-.29.41-.71.72-1.14.82l.29-.34-.02-.18-.37.03-.43.66-.68.74.55-.08.19.28-.19.24-1.8,1.94-2.29,2.74c-.17.38-.51.64-.86.79l.25.54-.35.4.28,1.08-.58.12-.05.28ZM26.32,57.99l.67-.96c-.73.22-.96.71-1.25,1.28.27,0,.52-.13.58-.32ZM17.45,66.06l-.06.06.06.06.06-.06-.06-.06ZM19.44,66.24h-.1s.1,0,.1,0Z"/>
        <path class="cls-4" d="M70.55,112.42l-.03.78-.71,1.29-.36.32-.35.2-.1-.39-.03-.39-.33.06-.07.24-.12.18-.24-.1-.3-.03v.25s.26.61.26.61l-.28.57.23.46c-.33.51-.26,1-.13,1.47l-.32,1.06c-.39-.03-.98.05-1.2.52.57.31,1.07.07,1.45-.41l.09.3v.12s-.28.04-.28.04l.04.29c-1.05.78-2.3,1.24-3.62,1.63l-3-1.43c.03-.3.35-.53.7-.66l.29-.89.65-.33-.36-.63c-.11-.33-.12-.9-.07-1.31.6-.22.77-.67.71-1.29l.33-.02.35.72c-.29.24-.45.47-.35.92l1.11-.25c-.01-.54.02-.82.38-1.12l.19-1.38.82-.18-.59-.39c.06-.15.42-.51.66-.68.23-.29.4-.49.77-.69l.29-.79.43.32.31-.34.18-.38.39.3c.43-.05.82-.45.83-.98l.73-.07c.06.52.12.82.25,1.22l.41,1.28Z"/>
        <path class="cls-4" d="M77.81,103.56l-.36.54c.05.56-.19,1.09-.68,1.38l-1.14,1.55c-.48.53-.95.85-1.66,1.01l-.82-1.07c-.12-.19-.34-.3-.79-.52l1.23-1.47-.48-.45c.34-.56.87-.92,1.57-.74.17.36.09.74-.26,1.03l-.14.71.66.23c.49.03.92-.05,1.07-.54l.76-.91.93-1.09.11.31Z"/>
        <path class="cls-4" d="M114.86,94.7l-.34.35-.29.04.04.26-.43.33c-.46.31-1.18.49-1.62.12v-1.03c-.22-.47.07-.86.51-.97l1.19-1.02,1.39-.23-.1.92.26.23-.64.44.03.55Z"/>
        <polygon class="cls-4" points="10.2 77.38 10.02 77.61 9.89 77.58 10.2 77.38"/>
        <path class="cls-4" d="M10.2,77.38l-.06-.23-.33-.31.81-.15-1.23-.27-.35-.4,2.29-.14.54.13.17.61.75-.06-.15-1.16c.05-.42.67-.58,1.09-.44l.53.24v.58s-.52.35-.52.35l.28.57-.38.16,1.91.61c-.21.23-.59.69-1.12.47l.62-.31-1.19-.47-1.32-.03-.25.25-.25-.26-.54-.37-.07.29-.33.05c-.35-.01-.64.09-.89.29ZM13.12,76.04l.52.03-.52-.03Z"/>
        <path class="cls-1" d="M105.2,98.94l-1.19-.35-.32-.39-.32-.39-.53.05-.04-.12-.03-.16-.22.23-.26.22-.18-.16.59-.97h.11s.21-.12.21-.12l-.27-.29.44-.1.15-.49c.64.41,1.02.88.68,1.64.23.11.52.15.81.16l.7.17.92.41-.22.67-.68-.19h-.27s-.09.18-.09.18Z"/>
        <path class="cls-1" d="M69.8,114.49l-.52.88-.77,1.04c-.32.45-.5.96-.35,1.47.45.5.36,1.24-.14,1.52l-.09-.3c-.38.47-.89.71-1.45.41.22-.47.81-.55,1.2-.52l.32-1.06c-.13-.47-.2-.96.13-1.47l-.23-.46.28-.57-.26-.61v-.25s.3.03.3.03l.24.1.12-.18.07-.24.33-.06.03.39.1.39.35-.2.36-.32Z"/>
        <path class="cls-4" d="M123.22,81.69l.25.2.35.6h-.49s-.17.51-.17.51l-.55.81-.83.13-.45-1.61c.28-.17.57-.57.57-.9l1.32.26Z"/>
        <path class="cls-4" d="M109.7,100.58l.08.82-1.2.39-.17-.89.27-1.17c.53-.06.5-.11.91-.5l-.24.99.08.32.28.04Z"/>
        <polygon class="cls-1" points="68.03 119.53 67.78 119.85 67.74 119.56 68.03 119.53"/>
        <polygon class="cls-1" points="114.51 95.05 114.27 95.35 114.23 95.09 114.51 95.05"/>
        <path class="cls-1" d="M50.61,85.71l-.09.32-.35-.2c-.32-.36-.38-.67-.19-1.1l-1.25-1.94-.3.63-.33.32-.34-.27c.12-.56-.2-.89-.58-1.11.11-.23.19-.5.16-.74-.37.18-.35.43-.38.84-.88-.44-1.36-1.16-2-1.96l.05-.7c.36-.22.51-.39.72-.76l.25.24.33-.1,1.3-.78c.14-.36.33-.76.56-1.1l.13-.31-.32-.07.45-.56c.77-.03,1.33-.46,1.48-1.19l.27-.33.25.23.56-.67.67-.67.16-.89-.57.26-.48-.25-.31-.2.27-.31c.64-.09,1.06-.42,1.29-1l.51-.28-.15-.7.52-.18v.93s.83.15.83.15c-.03.21-.17.57-.3.8l-1.57,1.94c-.38.24-.64.56-.87.93l-1.75,2.26c-.23.23-.42.5-.6.82-.61.37-1.12,1.05-.83,1.79l.39.76.65.77.71.02.34.58c.3.02.61.3.85.6l1.65,1.78-.55.02-.12-.48-1.07-.98-.12-.32-.35.23,1.12,1.24.07.52.61.97-.83-.09.02.07.12.06.03.19-.1-.03-.06-.05-.15-.04-.02-.02.07-.21-.03-.18-.23.2.16.3-.13.02-.16-.13-.08.1ZM50.62,85.53l-.14.06.14-.06Z"/>
        <path class="cls-1" d="M56.63,68.29l-.34.35-.44-.22-.42-.21-.41.32-1.86,1.4c-.09-.24.05-.54.43-.54l1.03-1.58v-.64s.66-.25.66-.25l-.6-.24c.1-.27.2-.43.39-.57l.69-.84.09.43.57-.72.85-.37c.34-.09.56-.38.68-.79.77-.08,1.38-.37,1.8-1.11l.4.41.04-.34.11-.07.45.43.28-.52,1.13-1.17.22.03-1.56,1.88c-.33.2-.42.63-.32.98-.33.03-.69.21-.89.49l-.94,1.24-.41-.06-.14-.28.43-.09-.49-.27c.45-.05.87.1.9-.62l-.44.25-.61-.63-.42.79-.6,1.3-.16.37-.46-.03c-.2.04-.39.11-.55.22l.18.7c.39-.11.68-.31,1.02-.62l.09.19.21-.08-.06-.35c.14-.13.37-.27.75-.24l-1.23,1.65Z"/>
        <path class="cls-1" d="M79.53,72.9l-.8.99-1.29.43c.54-.66.97-1.3,1.39-2.06.41-.41.62-.95.76-1.54l.3-.41-.16-.34,2.26-2.65c.29-.26.5-.49.76-.84l.53-.22-.02-.38.42-.02.81.58-1.1,1.73c-.26.13-.49.3-.64.53l-1.57,1.66-.57.71-.92,1.17c-.12.16-.19.33-.16.65Z"/>
        <path class="cls-1" d="M78.7,44.11c-.04.08-.39.08-.61,0l-.37-.54c-.35-.13-.67-.44-.73-.76l.35-.38-.44-.26c-.56.17-.87-.21-.98-.63l-.62-.61c-.08-.41-.45-.79-.7-.97l.16-.68c.69.26,1.51.77,1.97,1.38-.08.36,0,.66.17.82l.47-.43.47.37.76.27c-.01.47.08.73.29,1.04-.21.42-.35.62-.19,1.36Z"/>
        <path class="cls-1" d="M57.42,82.86c-.14-.32-.04-.71.23-1,.18-.79.66-1.41,1.45-1.57.44-.45.83-.9.99-1.36.18-.01.42-.09.66-.21.25-.19.28-.4.08-.82l.25-.79h.72s.5-.48.5-.48l-.12.84c-.17.34-.29.56-.6.74-.4.81-.97,1.56-1.71,2.13l-.91,1.03-.63.79c-.17.41-.36.77-.92.69Z"/>
        <path class="cls-1" d="M62.78,76.95l.11-1.35v-.63s.63-.42.63-.42c.22-.45.57-.85,1.06-1.08l1.14-.7c-.08-.48.19-.7.57-.69l.58-.35-.14.59-.55.2c-.13.44-.38.92-.7,1.3l-1.54,1.84-.38.07.03.36-.81.85Z"/>
        <path class="cls-1" d="M55.04,88.6l-.27.13-.19-.68c-.18,0-.58-.03-.57-.03l-.39.57-.43-.28-.31-.02-.22-.31-.9-.84.18-.82.62.07.09-.84,1.53,1.69,1.02,1.26.02.08.36.37-.54.28.12-.57-.11-.06Z"/>
        <path class="cls-1" d="M75.11,62.3l-1.76,1.91c-.04-.35-.03-.72.01-1l.72-1c.41-.32.8-.66.98-1.19l.4-.35.48.22.28-.33-.51-.27.63-.4.25.71-1.37,1.64.21.1-.17.1-.14-.14Z"/>
        <path class="cls-1" d="M95.01,69.87l.18.24-.1.21-.3-.15-.29-.14v-.31s-.83-.34-.83-.34c-.16-.77-.59-1.05-1.42-1.1l.53-.63.85.33c.46.5.96.89,1.51,1.21l.49-.15.11.65-.8-.34-.15.18.23.35Z"/>
        <path class="cls-1" d="M79.75,75.46c-.4.36-.98.73-1.38.49l.81-1.01,1.04-.73c.18-.67.83-.9,1.47-.69l-1.09,1.05-.86.9Z"/>
        <path class="cls-1" d="M81.1,55.53l2.07-2.63.24-.23.35.13-.71,1.05-.51.81-.68.43c-.18.52-.39.92-.98,1.29l.1-.83-.11-.08c-.13.17-.24.49-.29.77v1.27s.29.49.29.49l-.37-.29-.25.14-.24.12-.28-.21.29-.29c-.18-.23-.25-.56-.12-.83l.44-1.12c.45-.38.56-.72.93-1.29.04.42-.14.72-.3,1.13l.11.16Z"/>
        <path class="cls-1" d="M45.85,69.41l-.74.09,1.47-1.67.45-.17-.14-.65.58-.08c.09-.41.45-.67.85-.54l-.59.89.73.05c-1.15.26-2.12.94-2.62,2.08Z"/>
        <path class="cls-1" d="M91.59,66.3l.36-.23.09.37c-.57.09-.55.14-.78.7l-.83-.44-.41-.36.09-.56.56-.51.24.24.41-.3v1.25c-.07.04.18-.11.29-.17Z"/>
        <path class="cls-1" d="M54.56,59.18l-.53.33c-.14-.23-.18-.36-.21-.6l1.13-1.13,1.14-1.29c.3-.36.53-.63.98-.9l-.76,1.12c-.52.41-.89.98-1.13,1.56-.33.2-.5.39-.63.91Z"/>
        <path class="cls-1" d="M44.63,49.51v.49s-.49.02-.49.02c-.45-.21-.79-.3-1.24-.35l.55-.98c.18-.17.59-.3.77-.26.1.52.12.63.41,1.09Z"/>
        <path class="cls-1" d="M41.58,84.18c-.6.12-.72.27-.88.57l-.08.37-.52-.07.55-1.76,1.11-.13-.19,1.02Z"/>
        <path class="cls-1" d="M54.6,83.78l.17.75-.65-.41-.13-1.67c.54-.1.52-.19.83-.6v.42s.39,0,.39,0l-.02.26-.59-.05-.29.46.35-.1.15.36.65-.21.05.37-.85.17-.05.25ZM54.47,83.5h-.15s.15,0,.15,0ZM54.56,83.52l-.14.15.09.09.12-.11-.07-.13Z"/>
        <path class="cls-3" d="M50.99,105.71l-.14-.07-.25-.93-.24-.63.67.03.43,1.12c.45.37.8.73.99,1.32l-1.47-.85Z"/>
        <path class="cls-1" d="M33.32,59.96l-.48-.48c.41-.21.89-.66,1.25-1.06l1.62-1.36c0,.32-.28.63-.57.87l-.9.83c-.1.48-.46,1-.92,1.19Z"/>
        <path class="cls-3" d="M21.95,65.22l.25.67c0,.21-.06.53-.2.78-.21,0-.47-.07-.66-.25l.27-.4c-.21-.18-.43-.25-.55-.22l-.74.22.13-.67c.46-.1,1.02-.14,1.49-.14Z"/>
        <path class="cls-1" d="M52.92,98.95l-.26-.99c.6.69.92,1.19,1.69,1.64-.18.28-.54.5-.83.35-.35-.05-.5-.21-.71-.55l-.15-.21.19-.18.07-.06ZM53.02,99.02l-.05.13.05-.13Z"/>
        <path class="cls-1" d="M48.51,85.24l-.15.73-1.44-1.67-.37-.41.46-.34c.08.05.25.27.34.45l1.16,1.24Z"/>
        <path class="cls-1" d="M59.98,42.81l-.63.4c-.05.26-.19.15-.22-.05.43-.32.85-.73,1.14-1.15l-.13-.69.53.17.48-.52c.18.42-.04.93-.34,1.27l-.86,1.21.02-.64Z"/>
        <path class="cls-1" d="M22.89,70.99l-.84.74c-.18.09-.32-.03-.37-.39-.02-.13.15-.33.38-.46.36-.34.6-.63.89-1.04l.47.06-.08.42-.45.67Z"/>
        <path class="cls-3" d="M17.67,70.84l.96-.52.62.22c-.38.81-1.08,1.06-1.88,1.13l.3-.84Z"/>
        <path class="cls-1" d="M45.67,84.24c-.58.21-.64.27-1.09.69l.2-1.22c-.45-.15-.83-.46-.87-1.15l1,.41c-.04.6.28.91.76,1.27Z"/>
        <path class="cls-1" d="M67.36,71.57l-.55.06-.35-.46c.4-.18.61-.32.86-.61.31-.37.61-.62,1.05-.85-.03.65-.3.99-.77,1.27l-.24.58Z"/>
        <path class="cls-1" d="M42.23,82.49l-.74.16-.16-.8c.47-.05.78-.14,1.11-.39l.48-.19.45.52-.16.16-.32-.32-.65.85Z"/>
        <path class="cls-1" d="M36.28,99.09c-.16-.39.08-.66.42-.84l1.21-1.69c-.03.36-.06.39-.15.61l.26.45-1.75,1.47Z"/>
        <path class="cls-1" d="M93.15,50.81c-.26.38-.63.6-1.18.71l-.63-1.18,1.81.47Z"/>
        <path class="cls-1" d="M83.54,70.47l-1.54.89c.3-.38.62-.61,1.01-.84l1.08-.87.6.02.05.61-1.19.19Z"/>
        <path class="cls-1" d="M51.18,58.01c.06-.49.2-.82.46-1.23l.04-.28.33-.12.91-.94.22.18-1.31,1.5c-.1.38-.22.65-.65.89Z"/>
        <path class="cls-1" d="M70.76,67.44l-.88.16.49-.76.02-.48.44-.31.33-.08v.4c-.25.39-.3.49-.4,1.07Z"/>
        <path class="cls-1" d="M39.69,53.05l-1.41.59c.03-.31.11-.47.35-.68.25-.12.49-.09.91-.03.05-.42.09-.97.76-.87l-.61.99Z"/>
        <path class="cls-1" d="M62.78,60.61l-.02-.44.4-.14.76-1.23.62-.34.06-.49.42.04-2.49,3.23c-.1-.15-.02-.4.26-.63Z"/>
        <path class="cls-1" d="M45.37,62.14l-.97.58,1.55-1.98.22-.61.97-.56-.31.77-.57.05c-.06.46-.2.76-.55,1.04-.21.15-.33.35-.33.71Z"/>
        <path class="cls-1" d="M48.6,62.94l-.67.68c.3-.62.67-1.06,1.13-1.55l.64-.87c.3.89-.51,1.39-1.09,1.74Z"/>
        <path class="cls-1" d="M55.8,52.92c-.11.11-.4.27-.71.33l-1.9,2.26-.13-.52.48-.16,1.53-1.94,1.32-1.6.34-.09.06.36c-.27.08-.52.26-.62.51-.11.53-.36.56-.92.74l.54.12Z"/>
        <path class="cls-1" d="M42.06,65.71c-.07-.26.1-.59.38-.74l.88-1.3.66-.21-.82,1.07-1.1,1.18Z"/>
        <polygon class="cls-1" points="80.06 43.42 79.43 42.58 79.84 42.4 80.23 42.61 80.48 43.06 80.06 43.42"/>
        <polygon class="cls-1" points="75.61 85.6 74.95 86.44 74.53 85.92 75.01 85.53 75.61 85.6"/>
        <path class="cls-1" d="M45.68,71.28c-.52.13-.64.08-.84-.17-.02-.28.04-.41.35-.66l.49.83Z"/>
        <path class="cls-1" d="M48.42,58.94l-1.09.31c.23-.44.43-.63.77-.88l.31.58Z"/>
        <polygon class="cls-3" points="59.4 88.97 59.23 89.68 59.19 89.11 58.81 88.9 58.72 88.66 58.98 88.41 59.4 88.97"/>
        <polygon class="cls-3" points="54.1 101.25 53.97 101.76 53.43 101.61 53.45 101.03 54.1 101.25"/>
        <path class="cls-1" d="M43.95,66.53c-.07-.37-.02-.71.3-.76l2.18-2.47c-.32.68-.89,1.29-1.43,1.93-.46.41-.81.83-1.05,1.31Z"/>
        <polygon class="cls-1" points="60 44.77 59.01 45.17 59.6 44.3 59.77 44.59 60 44.77"/>
        <rect class="cls-1" x="43.87" y="67.6" width="1.12" height=".24" transform="translate(-35.22 53.05) rotate(-46.29)"/>
        <polygon class="cls-1" points="47.34 62.31 48.11 61.25 48.21 60.86 48.59 60.98 48.48 61.32 47.34 62.31"/>
        <path class="cls-1" d="M58.83,45.61c-.45.61-.73.85-1.18.99l.75-.87.43-.13Z"/>
        <path class="cls-1" d="M50.87,80.49c-.15.03-.37.04-.65.05l-.34-.07v-.13s.29-.14.29-.14l.7.29Z"/>
        <polygon class="cls-1" points="46.74 64.87 47.68 63.59 47.85 63.73 46.93 64.88 46.74 64.87"/>
        <path class="cls-1" d="M63.96,48.18c-.21-.29-.2-.68.28-.69l-.28.69Z"/>
        <polygon class="cls-1" points="68.5 34.96 68.33 35.03 68.04 34.82 68.15 34.66 68.34 34.5 68.56 34.56 68.5 34.96"/>
        <path class="cls-1" d="M45.22,66.72c.22-.49.58-.81,1.03-1.1-.3.45-.58.78-1.03,1.1Z"/>
        <rect class="cls-1" x="43.39" y="68.37" width=".76" height=".24" transform="translate(-36.05 53.19) rotate(-46.57)"/>
        <polygon class="cls-1" points="42.42 69.94 43.34 68.91 43.54 68.87 42.67 70.02 42.42 69.94"/>
        <polygon class="cls-1" points="63.7 47.59 63.64 47.74 63.4 47.93 63.4 47.35 63.7 47.59"/>
        <rect class="cls-1" x="46.11" y="65.16" width=".75" height=".22" transform="translate(-33.5 60.37) rotate(-51.03)"/>
        <polygon class="cls-1" points="92.88 66.65 92.38 66.72 92.34 66.3 92.88 66.65"/>
        <path class="cls-1" d="M40.35,51.9c-.07-.29-.02-.51.16-.66.07.29.02.51-.16.66Z"/>
        <path class="cls-1" d="M46.54,63.25c.13-.42.37-.71.76-.92l-.76.92Z"/>
        <path class="cls-1" d="M45.22,67.09c-.22.05-.51.12-.3.07-.03-.5.33-.34.3-.07Z"/>
        <polygon class="cls-1" points="59.69 50.71 59.78 50.95 59.59 51.15 59.36 51.07 59.69 50.71"/>
        <polygon class="cls-1" points="82.04 76.92 82.51 77 82.49 77.27 82.04 76.92"/>
        <polygon class="cls-1" points="55.7 70.21 56.01 70.22 56.14 70.38 55.91 70.47 55.7 70.21"/>
        <path class="cls-1" d="M43.92,63.36c.05-.23.25-.37.5-.5-.13.21-.25.36-.5.5Z"/>
        <circle class="cls-1" cx="50.99" cy="80.1" r=".14"/>
        <circle class="cls-1" cx="85.26" cy="77.65" r=".15"/>
        <circle class="cls-1" cx="57.05" cy="96.71" r=".14"/>
        <circle class="cls-1" cx="37.08" cy="81.26" r=".14"/>
        <path class="cls-1" d="M42.27,61.89c.14.01.09,0-.06,0-.3-.03-.28-.03.06,0Z"/>
        <polygon class="cls-1" points="79.06 42.24 79.33 42.29 79.27 42.5 79.06 42.24"/>
        <polygon class="cls-1" points="78.96 42.63 79.29 42.74 79.24 42.92 78.96 42.63"/>
        <path class="cls-1" d="M73.27,85.17l.3.22v.24s-.43.1-.43.1l-.06-1.1.77-.87.95-.83-.25.77c-.33.22-.53.4-.54.86l1.03-1.14.47-.6.49-.91.16-.31-.37-.13c-.02-.42.24-.75.68-.9.4-.14.71-.38.93-.73l1.1-.99.38-.19.27.21c-.37.03-.53.21-.45.57l-1.68,1.81c-.26.42-.56.8-.91,1.13-.29.57-.59,1.08-1.04,1.58-.18.21-.27.58-.21.74.32-.14.37-.06.24.09l-.58.92-.41.81.25.07.05.21-.38.15c-.38-.57-.36-1.13-.03-1.86l-.7.09ZM74.07,85.75c.29-.11.37-.41.02-.56l-.02.56Z"/>
        <polygon class="cls-1" points="56.34 52.67 56.34 52.75 56.34 52.84 56.34 52.92 56.34 52.84 56.34 52.75 56.34 52.67"/>
        <polygon class="cls-1" points="59.58 88.4 59.67 88.4 59.75 88.4 59.67 88.41 59.58 88.41 59.49 88.4 59.58 88.4"/>
        <rect class="cls-1" x="57.06" y="55.39" width=".09" height=".09" transform="translate(-22.47 56.62) rotate(-45)"/>
        <rect class="cls-1" x="93.12" y="50.5" width=".09" height=".09" transform="translate(-8.45 80.68) rotate(-45)"/>
        <rect class="cls-1" x="47.15" y="59.38" width=".09" height=".09" transform="translate(-28.2 50.78) rotate(-45)"/>
        <rect class="cls-1" x="62.6" y="77.03" width=".09" height=".09" transform="translate(-36.15 66.87) rotate(-45)"/>
        <rect class="cls-1" x="82.31" y="76.64" width=".09" height=".09" transform="translate(-30.1 80.69) rotate(-45)"/>
        <rect class="cls-1" x="26.67" y="71.23" width=".09" height=".09" transform="translate(-42.57 39.77) rotate(-45)"/>
        <path class="cls-4" d="M57.92,109.97l1-1.34,1.63-2.23-.75.05,1.18-1.52.71-.6.55.09.8-.94,1.01-1.17.44-.7c.36-.1.47-.36.46-.63l.22.34.16-.17.64-.86c.5.52.41,1.16-.06,1.72-.18.28-.33.59-.45.93l-2.14,2.74c-.44.28-.7.82-.76,1.29.24.39.15.67-.19,1.12l-.09-.9-.55.36-.7,1c-.23.36-.56.64-.92.84l-.12.37-.53.04-.83.98-.24.28-.36-.23.46-.35-.57-.5Z"/>
        <path class="cls-4" d="M112.51,77.95c.56-.23,1.08-.58,1.26-1.13.26.29.49.17.74-.02.03-.16.03-.46,0-.64l-.42-.61.58-.65c.28.29.44.43.71.58l.22.64.11.42.47-.27c.38.1.73.64.84,1.09l.86.56.12-.67c.13.12.34.43.43.63l.2-.42h.46s.48.16.48.16l.3-.41c.42-.16.9-.05,1.18.49-.13.24-.32.47-.55.73l-.66-.54-.41.45-.5-.28c-.27.37-.71.46-1.3.3v.31s.57,0,.57,0l-.54.49c-.11.25-.45.41-.68.4v-.53s-.46-.34-.46-.34l.21.7-.37.49-.42-.14-.12.29-.58-.04-.36.4-.72-.88-.65,1.07-.76-.03.54-.2-.09-.43.38-.3-.13-.27-.41.05c.05-.27.07-.42.05-.7l-.43.95-.18-.49-.24.15c-.03.38-.04.4-.13.64-.2.13-.43.2-.65.18l.08-1.25.7-.32.18-.62-.11-.12-.53.41-.13-.41.35-.24.87-.26-.48.5.1.1ZM112.05,79.34c0-.07-.06-.13-.13-.13s-.13.06-.13.13.06.13.13.13.13-.06.13-.13Z"/>
        <path class="cls-4" d="M108.84,77.28l-.41-.39.12-.72c-.52-.39-.57-1.26.03-1.75l1.45.02.2-.57.58-.4-.24-.66c-.14-.16-.18-.36-.05-.59l.72.84c.19.46.72.72,1.2.66l1.24-.96c-.54-.29-.8-.44-1.04-.88.38,0,.56.17.76.43.41.03.82.17.98.58l-1.3.68,1.94.05-1.12,1.26-.94,1.04-1.14.31-1.29,1.32-.72-.69c-.34.07-.39.1-.97.39Z"/>
        <path class="cls-4" d="M115.27,82.79c.41.19.92.33,1.28.35v.71s.78-1.5.78-1.5l.58.08-.15.71c0,.16.56.11.73-.03l-.3-.67.93.4-.31-.5-.33-.56-.91-.23,1.31-.15c.26.26.43.33.82.35.27-.07.43-.25.74-.59l.53,1.05-.05.68c-.25.18-.53.18-.95.17l.17.45-.38.2c-.63.58-1.37,1.05-2.17,1.19l-.28.56-.67-.02c-.2-.49-.47-.68-1-.56l-.9-1.06c-.31-.15-.6-.51-.49-.8l.27-.62.76.4ZM116.74,83.83v.08s0,.09,0,.09v.08s0-.08,0-.08v-.17Z"/>
        <path class="cls-4" d="M103.57,78.32l.72-1.26-.15-.9.87.24,1.12-1.5c.42-.21.76-.48,1.09-.76.07-.62.19-1.23.38-1.77l1.03-1.08.89-.95.88.18.31.81-1.68,2.03-1.98,1.53c-.17.33-.42.66-.75.88-.56.16-.87.6-1.08,1.08-.52.55-.88,1.15-1.65,1.47Z"/>
        <path class="cls-4" d="M94.8,84.2l.12-.15-.12.15Z"/>
        <path class="cls-4" d="M95.11,83.87c-.09-.32-.14-.3-.22-.13l-.48.7-.16.06-.43.44c-.34.25-.64.64-.67,1.11.38-.36.4-.7.96-.82l-.96,1.34c-.7-.04-1.06.4-1.26.93l-.55.91-.62.63-1.25-1.37c.31.02.51.08,1.01.28l.56-.91,1.21-1.48.57-.95.43-.1-.17-.43c.27-.41.82-.77,1.3-1.01.24-.27.46-.48.76-.7l.36-.66c.34.07.54.3.68.72,0,.27-.16.54-.42.82l-.64.62Z"/>
        <path class="cls-4" d="M94.67,84.33l.13-.13-.13.13Z"/>
        <polygon class="cls-4" points="94.92 84.05 94.89 83.75 95.11 83.87 94.92 84.05"/>
        <polygon class="cls-4" points="94.26 84.51 94.42 84.44 94.67 84.33 94.5 84.87 94.27 84.81 94.26 84.51"/>
        <path class="cls-4" d="M73.38,95.89l-1.35-1.27.97-1.14c.35-.81.68-1.52,1.61-1.97l-.39,1.12,1-1.08.26-.82.65.57-.64,1.11c-.43-.06-.67.19-.84.56l-1.26,1.94-.02.99ZM74.16,92.85c0-.06-.05-.11-.11-.11s-.11.05-.11.11.05.11.11.11.11-.05.11-.11ZM73.62,93.3h-.08s.08,0,.08,0h.17s-.08,0-.08,0h-.09Z"/>
        <path class="cls-4" d="M101.77,78.4l-.72-.03-.13-.72-.88-.66-1.65.38c.14-.47.12-1.03.01-1.45.29-.07.59-.26.72-.42l.34.39.66.54c.47.26.91.65,1.12,1.17l.52.8Z"/>
        <path class="cls-4" d="M72.32,90.65l.4-.13.08-.53.79-.68.4-.55.05.83-.82.67c-.21.3-.39.64-.52,1-.31.54-.5.92-.67,1.58-.16.03-.53-.07-.68-.2-.1-.3.06-.57.37-.67l.58-.46-.05-.78-.13-.09.11-.22.08.22Z"/>
        <path class="cls-4" d="M64.59,105.48l-1.35,1.3c-.03-.28.08-.45.26-.65l1.74-2.01.64-.77.28-.35.32.21-.17.43c-.15.32-.34.57-.64.77-.31.37-.62.82-1.07,1.07Z"/>
        <path class="cls-4" d="M67.66,97.93c-.42.07-.69-.08-.76-.38l.32-.18-.15-.15-.43-.22.67-.09,1.19-.87c.39-.24.86-.13,1.07.26l-.99.2.03.32-.29.2c-.42.17-.63.47-.65.92Z"/>
        <path class="cls-4" d="M70.62,109.98l-.73.06c.2-.69.41-1.16.83-1.6.28-.61.73-1,1.48-1.35.12.36-.21.82-.73.86l.1.42-.3.29-.67,1.32Z"/>
        <path class="cls-4" d="M57.67,115.86c.02-.22.14-.4.35-.54l.37-.55c.36-.11.62-.4.57-.8l.19-.46.48.06c.03.86-.41,1.36-1.06,1.79-.17.36-.4.65-.89.5Z"/>
        <path class="cls-4" d="M64.78,88.59l-.34.17-.29-.31-1.31-1.4-.37-.5c.87.09,1.39.61,1.74,1.18-.06.41,0,.56.57.86Z"/>
        <path class="cls-3" d="M85.57,84.62l.05-.29-.21-.68.34-.52.15.05c.2.12.37.39.4.59l-.02,1.2-.57-.02-.13-.34Z"/>
        <path class="cls-4" d="M115.91,91.48l-.23.25-.25-.23-.94-1.43.97-.66-.37.71c.08.3.22.47.49.64l.33.72Z"/>
        <path class="cls-3" d="M66.87,90.71l-.3-.47.39.26.09.11.75.28.35.64c.26.17.35.45.36.74l.27.33-.47.14c-.21-.67-.41-1.02-.88-1.39l-.52-.52-.05-.11Z"/>
        <path class="cls-4" d="M60.33,91.7c-.95-.15-1.27-.98-1.86-1.62l.34-.17.35.29,1.17,1.51Z"/>
        <path class="cls-4" d="M56.2,112.41c-.41-.19-.57-.48-.53-.76-.3-.02-.61-.39-.97-.65-.09-.21-.1-.43-.01-.75l.91,1.06c.47.18.7.64.6,1.11Z"/>
        <path class="cls-4" d="M61.86,93.51l-1.21-.95c-.2-.23-.27-.55-.22-.79.78.49,1.2.98,1.54,1.64l.04.07.75.66.05.09c.37.32.69.71,1.02,1.21-.82.07-.99-.57-1.09-1.09l-.11-.09-.34.14-.39-.82-.05-.06Z"/>
        <path class="cls-4" d="M67.67,98.52l.71-.49c.02-.37.08-.5.42-.69l-.18,1.36-.95-.18Z"/>
        <path class="cls-4" d="M56.84,105.51c-.58-.13-1.05-.71-1.21-1.41.51.31.85.74,1.21,1.41Z"/>
        <polygon class="cls-4" points="119.58 80.98 119.1 80.72 119.32 80.42 119.16 80.51 118.93 80.66 118.82 80.14 119.58 80.11 119.58 80.98"/>
        <path class="cls-4" d="M54.6,103.11l.13-.17.08.15c.28.22.52.46.74.88-.46-.11-.64-.41-.81-.73l-.14-.12Z"/>
        <path class="cls-4" d="M102.59,75.96l-.56-.47c.4-.32.64.02.56.47Z"/>
        <path class="cls-4" d="M80.25,79.36l.07-.18.11.13.07.08h.1s.6.7.6.7c-.46-.08-.58-.29-.75-.54l-.05-.06-.06-.08-.1-.03Z"/>
        <path class="cls-4" d="M85.62,84.33l-.05.29-.93.04c.28-.19.63-.29.97-.33Z"/>
        <path class="cls-4" d="M61.42,96.28l-.51-.05c-.14-.13-.17-.26-.09-.58l.61.63Z"/>
        <rect class="cls-4" x="111.77" y="70.83" width=".32" height=".57" transform="translate(-16.5 104.14) rotate(-46.85)"/>
        <path class="cls-4" d="M88.46,92.04c.18-.18.46-.29.78-.34-.22.2-.37.31-.78.34Z"/>
        <polygon class="cls-4" points="112.16 71.49 112.49 71.46 112.56 71.67 112.36 71.74 112.16 71.49"/>
        <path class="cls-4" d="M111.41,85.48l-.03-.29.4-.14c.04-.18.08-.2.09,0l-.46.43Z"/>
        <polygon class="cls-4" points="92.76 61.23 92.86 61.49 92.79 61.69 92.57 61.62 92.76 61.23"/>
        <polygon class="cls-4" points="101.93 78.81 101.72 78.75 101.79 78.54 101.99 78.61 102.07 78.82 102.06 79.02 101.93 78.81"/>
        <polygon class="cls-3" points="60.54 89.37 60.87 89.48 60.85 89.77 60.54 89.37"/>
        <circle class="cls-3" cx="84.6" cy="84.08" r=".15"/>
        <path class="cls-3" d="M61.09,89.98s.02-.04.04-.08l.24.31c-.18-.31-.19-.24-.15,0l-.12-.23Z"/>
        <polygon class="cls-4" points="58.1 89.63 58.43 89.74 58.38 89.93 58.1 89.63"/>
        <polygon class="cls-4" points="94.2 84.99 94.2 85.08 94.2 85.16 94.2 85.25 94.2 85.16 94.2 85.08 94.2 84.99"/>
        <polygon class="cls-4" points="57.9 110.42 57.99 110.42 58.07 110.43 57.99 110.43 57.9 110.43 57.82 110.43 57.9 110.42"/>
        <polygon class="cls-3" points="60.29 89.08 60.36 89.02 60.5 89.14 60.42 89.21 60.29 89.08"/>
        <rect class="cls-4" x="89.39" y="91.58" width=".09" height=".09" transform="translate(-38.59 90.08) rotate(-45)"/>
        <rect class="cls-4" x="111.93" y="80.37" width=".09" height=".09" transform="translate(-24.07 102.73) rotate(-45)"/>
        <rect class="cls-4" x="62.34" y="103.43" width=".09" height=".09" transform="translate(-54.89 74.42) rotate(-45)"/>
        <circle class="cls-4" cx="62.07" cy="103.79" r=".11"/>
        <circle class="cls-4" cx="59.62" cy="106.76" r=".11"/>
        <path class="cls-4" d="M36.65,49.52l.85-.97c.32-.16.61-.38.87-.66.29-.23.49-.43.63-.77l6.52-7.83c-.54.21-.92.57-1.31.93l-.85.95-1.19,1.01c-.79,1.01-1.64,2.02-2.66,2.71-.55.18-.75.76-1.32,1,.43-.78,1.04-1.27,1.68-1.75.06-.25.26-.41.54-.42l1.46-1.72.47-.3c.22-.24.45-.42.72-.59l1.99-2.24c.37-.05.6-.04.72.06l.18-.27.24.21,1.21,1.06-.77.66-1,1.28-.96,1.1-1.08,1.22-.25-.61c-.27.33-.38.67-.17,1.09l-1.81,1.95c-.45.24-.77.61-.97,1.07-.86.89-1.62,1.82-2.34,2.8l-2.73,3.21-2.99,3.55c-.38-.17-.6-.32-1.01-.61l-.59.54-.17-.07,2.43-2.9c.26-.18.45-.41.59-.69l2.95-3.49.12-.54Z"/>
        <path class="cls-4" d="M64.87,23.67l-.8,1.1-.14-.75c-.26.6.04.9.6,1.19-.09.32-.44.69-.77.8l-.07.36-.28-.14.19-.33-.41.02-.52-1.03c-.57-.1-1.02-.26-1.22-.74.83.19,1.43-.08,1.57-.82l1.1-1.43,1.25-1.23.6-.87.4.61.49-.16.66.46.5.73.51.41c.23.02.29.03.66-.21l.26.45c-.05.26-.14.44-.33.68l-.95-.85-.67.02-.35-.78c-.25.24-.53.66-.54,1.01-.35.09-.68.35-.94.75-.07.46-.41.65-.8.73Z"/>
        <path class="cls-4" d="M86.41,35.8c-.13-.47-.61-.66-1.02-.56l-.29-.69c-.47-.13-.78-.29-1.1-.61-.27-.27-.58-.45-.94-.61l-.32-.43-.71.05-.23-.75-.89-.04-.23-.57-.66.04-.7-.42.3-.45-1.31-.48.42-.66,1.18.58.28.28.38-.06.05.39.42.18,1.24.94c.56.49,1.17.9,1.84,1.24l1.92,1.3c.34.49.82.84,1.3,1.04.1.51.57.51,1.23.52l-.15.58c-.19,0-.41-.03-.65-.1l-1.36-.73Z"/>
        <path class="cls-4" d="M52.7,32.6l.82-1.15c.36.07.53-.09.62-.35l.27-.57.9-.09-1.47-.25.09-.7.72.04c.44.5,1.12.37,1.47-.07l.74-.81c.4-.16.8-.41,1.04-.75l1.19-1.46.24.25c-.23.17-.33.35-.23.65l-1.1,1.15c-.26.22-.49.48-.67.74-.35.09-.69.28-.97.58-.3.62-.75,1-1.42,1.14l-1.41,1.24c.08.37-.05.76-.33.91l-.5-.52Z"/>
        <path class="cls-4" d="M67.65,45.75l-1.02.31c-.18.05-.44.1-.6.12l.65-.9.23-.22-.05-.39,1.29-1.11,1.64-1.95.29-.14.23.2-.16.23c-.06.22-.17.49-.29.64l-.94.94c.11.67-.13,1.25-.46,1.81-.36,0-.62.09-.81.47Z"/>
        <path class="cls-4" d="M67.12,40.44l.07.3-.26.3c-.42.35-.46.64-.39,1.23-.17-.06-.3-.29-.33-.53-.21-.54-.18-1.05.17-1.49l2.03-2.5.61-.33c-.21.63-.17.9.28,1.31-.62.27-1.2.58-1.5,1.28l-.69.45Z"/>
        <path class="cls-4" d="M63.25,19.84c-.13-.2-.22-.43-.27-.65l.46-.54-.23.99.42-.41.38.02.3-1.01,1.48-.37-.14,1.01h-.49s-.22.64-.22.64l-.27.31.08.46-1.07.31c-.12-.35-.18-.51-.43-.77Z"/>
        <path class="cls-4" d="M60.11,23.37l-.12-.8-.77-.05-.07-.55c.63.11.91-.12,1.11-.58h.87s.23-.21.23-.21l.32.15-.66,1.04.13.36-.28.39-.77.26Z"/>
        <path class="cls-4" d="M70.69,24.77l-1.06-.22c-.1.05-.38-.2-.39-.32.59.16,1.03.26,1.41.13l-.12-.57-.35.03-1.09-.98,1.08.05c.46.46.9.77,1.41,1.04-.17.36-.18.76.14,1.09l-.13.31-.21-.17-.69-.39Z"/>
        <path class="cls-4" d="M74.2,26.2l-.1-.02v-.23s.26.24.26.24l.05.02.63.36c.21.11.41.27.57.45l1.13.93.78.58-.98.06-.48-.25-.59.38.4-.85-.34-.2-.31.3c-.14-.51-.56-.85-1.08-1.17l.17-.44-.12-.14Z"/>
        <path class="cls-4" d="M92.38,46.33c-.17,0-.34-.4-.33-.74l-.88-1.17-.27-.36.13-.49.26-.25-.12-.31.77.05-.03.38-.63.13,1.26,2.03c-.1.23-.1.2-.15.73Z"/>
        <path class="cls-4" d="M65.86,26.05l.13-.31.02-.12-.32.11-.4-.04c.04-.22.11-.5.12-.47l.77-.38c.07-.34.38-.4.63-.31l.38-.19.33.34c-.56.33-.87.58-1.25,1.03l-.41.34Z"/>
        <path class="cls-4" d="M56.25,27.84c.32-.16.46-.39.69-.89l.28.42c.52-.78,1.09-1.45,2.05-1.64l-1.39,1.38-.97.83-.42.27-.34-.32-.23-.1.17-.09.15.14Z"/>
        <path class="cls-4" d="M30.18,56.92c-.55.75-1.02,1.13-1.71,1.45l1.33-1.44c.04-.09.33-.11.38-.01Z"/>
        <path class="cls-4" d="M91.33,47.56c-.48-.02-1.05-.4-1.22-.99l1.09.72.31-.08-.08.24.07.06.47.36-.48.03-.1-.31-.06-.04Z"/>
        <path class="cls-4" d="M30.67,56.19c.02-.37.16-.52.56-.71v-.46s.35.05.35.05c-.12.41-.35.8-.92,1.12Z"/>
        <polygon class="cls-4" points="69.21 17.77 69.73 17.07 69.73 17.62 69.21 17.77"/>
        <polygon class="cls-4" points="78.3 30.31 77.48 30.07 78.02 29.9 78.3 30.31"/>
        <rect class="cls-4" x="37.52" y="46.07" width=".76" height=".25" transform="translate(-21.42 39.05) rotate(-43.77)"/>
        <polygon class="cls-4" points="78.34 50.09 78.86 50.15 78.71 50.44 78.35 50.49 78.34 50.09"/>
        <polygon class="cls-4" points="65.12 15.56 64.24 15.63 65.09 15.23 65.12 15.56"/>
        <polygon class="cls-4" points="30.11 56.65 30.47 56.11 30.53 56.61 30.11 56.65"/>
        <polygon class="cls-4" points="30.97 49.71 30.7 49.71 30.7 49.59 30.94 49.5 31.03 49.64 31.11 49.69 31.31 49.87 30.92 50.23 31.01 49.77 30.97 49.71"/>
        <path class="cls-4" d="M69.13,24.16l-.39.03-.63.15c.24-.38.65-.46,1.02-.18Z"/>
        <polygon class="cls-4" points="31.15 49.21 31.63 49.19 31.57 49.4 31.44 49.55 31.15 49.21"/>
        <polygon class="cls-4" points="62.38 21.93 62.23 21.98 62.37 21.55 62.53 21.49 62.59 21.69 62.38 21.93"/>
        <polygon class="cls-4" points="63.07 20.7 62.45 21.1 62.61 20.53 63.07 20.7"/>
        <polygon class="cls-4" points="72.44 48.55 72.44 48.63 72.44 48.72 72.44 48.8 72.43 48.72 72.43 48.63 72.44 48.55"/>
        <polygon class="cls-3" points="69.98 17.13 69.99 17.21 69.99 17.3 69.99 17.38 69.98 17.3 69.98 17.21 69.98 17.13"/>
        <rect class="cls-4" x="78.96" y="49.98" width=".09" height=".09" transform="translate(-12.24 70.52) rotate(-45)"/>
        <path class="cls-4" d="M64.8,46.27c-.32-.12-.53-.36-.56-.79l-1.38-.78,1.26-1.58.19-.19.31.12.02-.59.45-.2c.13-.31.24-.5.56-.57.02.45-.02.83-.12,1.1l-.67.21-.03.65-.21.73c.51-.21.74-.39,1.06-.73l1.79-1.97.65-.87,1.24-1.5c.69.47,1.15.74,1.62,1.4l-.93-.37-1.04,1.32-1.32,1.74-.24-.46-.32-.03-.03.56-.39-.05.15.45-.34.32.04.46c-.49.05-.78.38-.97.8l-.7.64.15.11-.1.17-.12-.11Z"/>
        <polygon class="cls-3" points="69.73 16.87 69.8 16.93 69.73 17.01 69.67 16.93 69.73 16.87"/>
        <path class="cls-4" d="M18.3,79.86c-.18-.08-.35-.19-.57-.39l-.15-.05s-.03-.11-.06-.24c.45-.04.81.22.9.58l.07.05.24-.05.13.26.1-.05c.55.43,1.12,1.03,1.55,1.64.08.15.11.21.07.13l.08-.32.7.5.21-.24.23.2.6.82,1.39,1.93.47.56.6.83,1.57,1.9.63.62c-.23.15-.68.03-.84-.27l-.52-.34-.58.32.65,1.09-1.34-1.14c.17-.6-.32-.85-.78-.94-.44-.74-.96-1.37-1.56-1.94l-.46-.46c-.33-.73-.85-1.39-1.6-1.72l-.03-.28-.17-.05-.22.24c.12-.4.15-.7-.21-.98-.33-.37-.53-.81-.64-1.3l-.16-.35.21-.25-.06-.06h-.24s-.07-.19-.07-.19l-.12-.06ZM25.43,87.31l-.06.06.06.06.06-.06-.06-.06ZM24.97,87.55l.06.41.21-.06v-.28s-.27-.06-.27-.06Z"/>
        <path class="cls-4" d="M30.14,76.98l.11.14.6,1.07.64.6.59-.09.38.44.52.94c.15.18.33.33.62.52-.4.17-.79.53-.8,1l-.17.18-.15-.37-.58.62c-.49.46-1.3.48-1.85.07l-.86-.38-.04-.57-.7-.24-.28-.88c.06-.07.28-.37.42-.59l.61-.78.47-.1.14-.53.2-.2-.43-.19.39-.24-.08-.34.24-.08Z"/>
        <path class="cls-4" d="M12.87,73.15c.37.14.79.18,1.23.18l.71.18.8-.02-.03.47.43.16.16.25.43-.14-.63.69.47.94.72.67-.76.59-.56-.33.08-.33-.24-.07-.33.25.42-.91-.56.11.36-.6-.77-.55c-.59-.5-1.27-.66-2.06-.51-.74.18-1.45.21-2.16-.17.11-.42.48-.65.87-.74l.27-.06-.05-.15h.77s.44.08.44.08Z"/>
        <path class="cls-3" d="M15.62,73.49l-.8.02c-.45-.52-1.33-.62-1.95-.36l-.44-.07h-.77s-.87-.31-.87-.31l-.63-.02-.33-.04-.06-.4.45-.18c.32-.16.61-.15.86.12.43-.33.97-.34,1.46-.09.57.09,1.07.23,1.6.49l2.44.36c.47-.3.99-.41,1.45-.36l.42.57-.52.32c-.63,0-1.11.04-1.59.13l-.72-.18Z"/>
        <path class="cls-4" d="M20.22,76.88l-.1.63-.23.09-.03.36c-.34-.08-.65-.5-.56-.95l-.36-.22.17-.39v-.68c.45-.16.65-.31.84-.64.37-.4.45-.69.53-1.36l.32,1.14.28.17-.06.34.36.26-.33.45c.05.15.22.31.42.42l.44.41-.42.51c-.2-.05-.36-.13-.55-.26l-.74-.29Z"/>
        <path class="cls-4" d="M31.11,83.19l-4.45.49c.47-.27,1.02-.4,1.58-.57.8-.4,1.64-.52,2.53-.5l1.32-.08c-.05.54-.47.63-.98.66Z"/>
        <path class="cls-4" d="M10.8,72.77l-.34.41c-.45.1-.53.72-.34.96l-.7.04-1.25-.27,1.52-1.07.29.35.2-.2v-.23s.62.02.62.02Z"/>
        <path class="cls-3" d="M30.99,76.65l.22.24.44-.03-.09.47.25.2-.34.85c-.38-.71-.65-1.03-1.23-1.26l-.11-.14-.17-.34-.65-.07.37-.3.48.26.82.12Z"/>
        <path class="cls-4" d="M22.23,76.58l-.29-.72.52-.09-.77-.27c-.3-.34-.52-.79-.61-1.41l1.32.82.07.4.35-.05c-.1.44-.26.83-.59,1.31Z"/>
        <path class="cls-3" d="M25.29,83.82l-.7.48-.99-1.07c.62-.16.95-.08,1.42.02l-.1.4.36.18Z"/>
        <polygon class="cls-3" points="14.7 69.98 14.38 70.72 14.21 70.3 14.7 69.98"/>
        <path class="cls-4" d="M31.82,77.53l-.25-.2.09-.47-.44.03-.22-.24.02-1.1-.09-.13.17-.07.07.13.86-.85.07.25-.25.25.44.19c.28.4.2,1.1-.28,1.39l-.19.83Z"/>
        <path class="cls-1" d="M106.17,89l-.44-.28c.19.03.44.1.52.15l.11.06,2.41,2.33.43.1-.15.42-.37-.21-.19-.13-.21.25-1.41-1.17c-.11-.25-.16-.43-.19-.73l-.44-.68-.06-.11Z"/>
        <path class="cls-1" d="M106.12,87.55l.09-.08.11.13.54-.17.35.47,1.12.96-.35.16-.04.17.9-.02c-.08.6-.46.83-.83.77-.22-.37-.41-.53-.83-.67l-.24-.63-.81-1.02-.02-.08Z"/>
        <path class="cls-1" d="M98.74,97.3s-.08-.26-.12-.41l.49-.12.29.51.67-1.08.55.19c-.01.33-.07.58-.17.77-.64.41-.85.51-1.72.14Z"/>
        <path class="cls-1" d="M108.72,88.09l.05-.12.16.1c.23.18.39.52.34.95l-.48-.85-.07-.07Z"/>
        <polygon class="cls-1" points="86.36 92.58 86.16 93.47 84.63 92.17 83.66 91.44 84.39 90.74 85.56 91.77 85.23 92.02 85.47 92.25 85.78 91.93 86.36 92.58"/>
        <polygon class="cls-1" points="78.97 98.36 78.6 98.96 78.09 98.89 77.9 98.23 78.23 97.53 79.08 98.29 79.16 98.36 79.68 98.48 79.89 99.02 79.08 98.94 79.02 98.48 78.97 98.36"/>
        <path class="cls-1" d="M26.32,57.99c-.06.19-.31.33-.58.32.29-.58.52-1.07,1.25-1.28l-.67.96Z"/>
        <rect class="cls-1" x="17.4" y="66.08" width=".09" height=".09" transform="translate(-41.65 31.7) rotate(-45)"/>
        <path class="cls-1" d="M13.64,76.06l-.52-.03.52.03Z"/>
        <path class="cls-4" d="M74.07,85.75l.02-.56c.35.15.27.44-.02.56Z"/>
        <circle class="cls-1" cx="111.92" cy="79.34" r=".13"/>
        <polygon class="cls-1" points="116.74 83.83 116.74 83.92 116.74 84 116.74 84.09 116.73 84 116.73 83.92 116.74 83.83"/>
        <polygon class="cls-1" points="73.62 93.3 73.7 93.3 73.79 93.3 73.7 93.3 73.62 93.3 73.53 93.3 73.62 93.3"/>
        <circle class="cls-1" cx="74.05" cy="92.85" r=".11"/>
        <polygon class="cls-1" points="24.97 87.55 25.24 87.62 25.24 87.9 25.03 87.96 24.97 87.55"/>
        <rect class="cls-1" x="25.38" y="87.33" width=".09" height=".09" transform="translate(-54.33 43.57) rotate(-45)"/>
        <path class="cls-1" d="M14.82,73.51l-.71-.18c-.44,0-.86-.04-1.23-.18.61-.26,1.5-.16,1.95.36Z"/>
      </g>
    </g>
  </g>
</svg>