<?xml version="1.0" encoding="UTF-8"?>
<svg xmlns="http://www.w3.org/2000/svg" viewBox="0 0 1920 1080" width="1920" height="1080">
  <defs>
    <linearGradient id="bg" x1="0%" y1="0%" x2="0%" y2="100%">
      <stop offset="0%" stop-color="#c7ddf5"/>
      <stop offset="100%" stop-color="#b8d4f0"/>
    </linearGradient>
  </defs>
  <rect width="1920" height="1080" fill="url(#bg)"/>
  <text x="960" y="28" text-anchor="middle" font-family="system-ui, sans-serif" font-size="18" font-weight="700" fill="#4b5563" letter-spacing="1">USER LOGIN - SIGN IN PAGE</text>
  <text x="40" y="52" fill="#8b5cf6" font-family="system-ui, sans-serif" font-size="18" font-weight="bold">DESKTOP (16:9)</text>
  <text x="1500" y="52" fill="#d946ef" font-family="system-ui, sans-serif" font-size="15" font-weight="bold">MOBILE</text>

  <g id="desktop" transform="translate(40, 60)">
    <rect width="1280" height="720" rx="8" fill="#e8d4b8" stroke="#b8a080"/>
    <rect x="0" y="0" width="1280" height="60" fill="#dcc8a8"/>
    <text x="24" y="38" font-family="system-ui, sans-serif" font-size="18" font-weight="bold" fill="#1f2937">Acme</text>
    <rect x="390" y="180" width="500" height="380" rx="12" fill="#f5f0e6" stroke="#b8a080"/>
    <text x="640" y="220" text-anchor="middle" font-family="system-ui, sans-serif" font-size="22" font-weight="bold" fill="#1f2937">Sign in</text>
    <text x="414" y="265" font-family="system-ui, sans-serif" font-size="14" fill="#374151">Email</text>
    <rect x="414" y="275" width="452" height="44" rx="6" fill="#ffffff" stroke="#b8a080"/>
    <text x="426" y="303" font-family="system-ui, sans-serif" font-size="14" fill="#9ca3af">you@example.com</text>
    <g transform="translate(886, 287)"><circle r="14" fill="#dc2626"/><text y="5" fill="#fff" font-size="14" font-weight="bold" text-anchor="middle">1</text></g>
    <text x="414" y="345" font-family="system-ui, sans-serif" font-size="14" fill="#374151">Password</text>
    <rect x="414" y="355" width="452" height="44" rx="6" fill="#ffffff" stroke="#b8a080"/>
    <text x="426" y="383" font-family="system-ui, sans-serif" font-size="14" fill="#9ca3af">&#8226;&#8226;&#8226;&#8226;&#8226;&#8226;&#8226;&#8226;</text>
    <rect x="414" y="418" width="452" height="48" rx="6" fill="#8b5cf6"/>
    <text x="640" y="448" text-anchor="middle" font-family="system-ui, sans-serif" font-size="16" font-weight="bold" fill="#ffffff">Sign in</text>
    <text x="640" y="500" text-anchor="middle" font-family="system-ui, sans-serif" font-size="14" fill="#2563eb" text-decoration="underline">Forgot password?</text>
    <g transform="translate(760, 495)"><circle r="14" fill="#dc2626"/><text y="5" fill="#fff" font-size="14" font-weight="bold" text-anchor="middle">2</text></g>
    <rect x="0" y="660" width="1280" height="60" fill="#dcc8a8"/>
    <text x="640" y="698" text-anchor="middle" font-family="system-ui, sans-serif" font-size="14" fill="#374151">&#169; 2026 Acme</text>
  </g>

  <g id="mobile" transform="translate(1360, 60)">
    <rect width="360" height="720" rx="24" fill="#e8d4b8" stroke="#b8a080"/>
    <rect x="0" y="0" width="360" height="78" rx="24" fill="#dcc8a8"/>
    <rect x="0" y="54" width="360" height="24" fill="#dcc8a8"/>
    <text x="20" y="52" font-family="system-ui, sans-serif" font-size="16" font-weight="bold" fill="#1f2937">Acme</text>
    <rect x="20" y="110" width="320" height="400" rx="12" fill="#f5f0e6" stroke="#b8a080"/>
    <text x="180" y="148" text-anchor="middle" font-family="system-ui, sans-serif" font-size="18" font-weight="bold" fill="#1f2937">Sign in</text>
    <text x="36" y="190" font-family="system-ui, sans-serif" font-size="14" fill="#374151">Email</text>
    <rect x="36" y="200" width="288" height="44" rx="6" fill="#ffffff" stroke="#b8a080"/>
    <g transform="translate(334, 212)"><circle r="14" fill="#dc2626"/><text y="5" fill="#fff" font-size="14" font-weight="bold" text-anchor="middle">1</text></g>
    <text x="36" y="275" font-family="system-ui, sans-serif" font-size="14" fill="#374151">Password</text>
    <rect x="36" y="285" width="288" height="44" rx="6" fill="#ffffff" stroke="#b8a080"/>
    <rect x="36" y="350" width="288" height="48" rx="6" fill="#8b5cf6"/>
    <text x="180" y="380" text-anchor="middle" font-family="system-ui, sans-serif" font-size="16" font-weight="bold" fill="#ffffff">Sign in</text>
    <text x="180" y="438" text-anchor="middle" font-family="system-ui, sans-serif" font-size="14" fill="#2563eb" text-decoration="underline">Forgot password?</text>
    <g transform="translate(256, 434)"><circle r="14" fill="#dc2626"/><text y="5" fill="#fff" font-size="14" font-weight="bold" text-anchor="middle">2</text></g>
    <rect x="0" y="664" width="360" height="56" rx="24" fill="#dcc8a8"/>
  </g>

  <g id="annotations" transform="translate(40, 800)">
    <rect width="1840" height="220" rx="8" fill="#dcc8a8" stroke="#b8a080"/>
    <g transform="translate(20, 20)">
      <circle cx="14" cy="14" r="14" fill="#dc2626"/>
      <text x="14" y="19" fill="#fff" font-size="14" font-weight="bold" text-anchor="middle">1</text>
      <text x="40" y="14" font-family="system-ui, sans-serif" font-size="14" font-weight="bold" fill="#1f2937">Enter credentials and sign in</text>
      <text x="40" y="34" font-family="system-ui, sans-serif" font-size="14" fill="#374151">As a returning user, I enter email + password and click Sign in.</text>
      <rect x="40" y="44" width="60" height="22" rx="4" fill="#0891b2"/>
      <text x="70" y="59" fill="#fff" font-size="12" text-anchor="middle" font-family="system-ui, sans-serif">US-001</text>
      <rect x="106" y="44" width="60" height="22" rx="4" fill="#2563eb"/>
      <text x="136" y="59" fill="#fff" font-size="12" text-anchor="middle" font-family="system-ui, sans-serif">FR-001</text>
      <rect x="172" y="44" width="60" height="22" rx="4" fill="#ea580c"/>
      <text x="202" y="59" fill="#fff" font-size="12" text-anchor="middle" font-family="system-ui, sans-serif">SC-001</text>
    </g>
    <g transform="translate(920, 20)">
      <circle cx="14" cy="14" r="14" fill="#dc2626"/>
      <text x="14" y="19" fill="#fff" font-size="14" font-weight="bold" text-anchor="middle">2</text>
      <text x="40" y="14" font-family="system-ui, sans-serif" font-size="14" font-weight="bold" fill="#1f2937">Recover forgotten password</text>
      <text x="40" y="34" font-family="system-ui, sans-serif" font-size="14" fill="#374151">As a user who forgot, I click the link and land on the reset form.</text>
      <rect x="40" y="44" width="60" height="22" rx="4" fill="#0891b2"/>
      <text x="70" y="59" fill="#fff" font-size="12" text-anchor="middle" font-family="system-ui, sans-serif">US-002</text>
      <rect x="106" y="44" width="60" height="22" rx="4" fill="#2563eb"/>
      <text x="136" y="59" fill="#fff" font-size="12" text-anchor="middle" font-family="system-ui, sans-serif">FR-004</text>
    </g>
  </g>

  <text x="40" y="1060" fill="#374151" font-family="system-ui, sans-serif" font-size="18" font-weight="bold">001:01 | User Login | SpecKit</text>
</svg>
